<svg width="200" height="200" viewBox="0 0 200 200" fill="none" xmlns="http://www.w3.org/2000/svg">
<path fill-rule="evenodd" clip-rule="evenodd" d="M175 56.25V175C175 181.63 172.366 187.989 167.678 192.678C162.989 197.366 156.63 200 150 200H137.5V187.5H150C153.315 187.5 156.495 186.183 158.839 183.839C161.183 181.495 162.5 178.315 162.5 175V56.25H137.5C132.527 56.25 127.758 54.2746 124.242 50.7583C120.725 47.2419 118.75 42.4728 118.75 37.5V12.5H50C46.6848 12.5 43.5054 13.817 41.1612 16.1612C38.817 18.5054 37.5 21.6848 37.5 25V137.5H25V25C25 18.3696 27.6339 12.0107 32.3223 7.32233C37.0107 2.63392 43.3696 0 50 0L118.75 0L175 56.25ZM20 148.125H0V198.112H9.8875V181.337H19.925C23.5083 181.337 26.5583 180.617 29.075 179.175C31.6167 177.717 33.5458 175.742 34.8625 173.25C36.2349 170.643 36.9271 167.733 36.875 164.787C36.875 161.662 36.2167 158.842 34.9 156.325C33.581 153.837 31.5883 151.771 29.15 150.363C26.65 148.863 23.6 148.117 20 148.125ZM26.8125 164.787C26.855 166.434 26.49 168.066 25.75 169.537C25.0865 170.82 24.049 171.87 22.775 172.55C21.3188 173.267 19.71 173.619 18.0875 173.575H9.85V156H18.1C20.825 156 22.9583 156.754 24.5 158.263C26.0417 159.788 26.8125 161.962 26.8125 164.787ZM42.025 148.125V198.112H60.275C65.2917 198.112 69.45 197.125 72.75 195.15C76.0895 193.152 78.6972 190.132 80.1875 186.538C81.8208 182.788 82.6375 178.271 82.6375 172.987C82.6375 167.737 81.8208 163.258 80.1875 159.55C78.7117 155.998 76.1297 153.017 72.825 151.05C69.525 149.1 65.3375 148.125 60.2625 148.125H42.025ZM51.9125 156.187H58.95C62.0417 156.187 64.5792 156.821 66.5625 158.088C68.6191 159.444 70.1736 161.437 70.9875 163.762C71.9708 166.279 72.4625 169.417 72.4625 173.175C72.5013 175.668 72.2155 178.156 71.6125 180.575C71.1813 182.488 70.346 184.286 69.1625 185.85C68.0749 187.252 66.634 188.339 64.9875 189C63.0581 189.721 61.0093 190.069 58.95 190.025H51.9125V156.187ZM98.7 178.225V198.112H88.825V148.125H120.675V156.288H98.7V170.25H118.775V178.225H98.7Z" fill="black"/>
</svg>
