<svg width="200" height="200" viewBox="0 0 200 200" fill="none" xmlns="http://www.w3.org/2000/svg">
<g clip-path="url(#clip0_565_1934)">
<path fill-rule="evenodd" clip-rule="evenodd" d="M175 56.25V175C175 181.63 172.366 187.989 167.678 192.678C162.989 197.366 156.63 200 150 200V187.5C153.315 187.5 156.495 186.183 158.839 183.839C161.183 181.495 162.5 178.315 162.5 175V56.25H137.5C132.527 56.25 127.758 54.2746 124.242 50.7583C120.725 47.2419 118.75 42.4728 118.75 37.5V12.5H50C46.6848 12.5 43.5054 13.817 41.1612 16.1612C38.817 18.5054 37.5 21.6848 37.5 25V137.5H25V25C25 18.3696 27.6339 12.0107 32.3223 7.32233C37.0107 2.63392 43.3696 0 50 0L118.75 0L175 56.25ZM77.0125 170.825V177.35C77.0125 180.55 76.525 183.221 75.55 185.363C74.7209 187.34 73.3192 189.025 71.525 190.2C69.7521 191.252 67.7241 191.797 65.6625 191.775C63.5925 191.802 61.5552 191.257 59.775 190.2C57.9971 189.019 56.6059 187.341 55.775 185.375C54.7235 182.834 54.225 180.098 54.3125 177.35V170.825C54.3125 167.608 54.8 164.937 55.775 162.812C56.6039 160.842 57.9952 159.159 59.775 157.975C61.5433 156.886 63.5863 156.327 65.6625 156.362C67.8625 156.362 69.8167 156.904 71.525 157.987C73.3173 159.159 74.7188 160.839 75.55 162.812C76.525 164.937 77.0125 167.608 77.0125 170.825ZM87.05 177.313V170.9C87.05 166.192 86.1958 162.142 84.4875 158.75C82.8823 155.443 80.3162 152.699 77.125 150.875C73.95 149.042 70.1292 148.125 65.6625 148.125C61.2208 148.125 57.3875 149.042 54.1625 150.875C50.9671 152.676 48.3982 155.411 46.8 158.712C45.1 162.096 44.2458 166.158 44.2375 170.9V177.313C44.2375 182.004 45.0917 186.058 46.8 189.475C48.5083 192.858 50.9667 195.471 54.175 197.312C57.3917 199.112 61.225 200.012 65.675 200.012C70.1333 200.012 73.95 199.112 77.125 197.312C80.3167 195.479 82.775 192.867 84.5 189.475C86.2 186.058 87.05 182.004 87.05 177.313ZM0 149.075V199.075H18.2375C23.2625 199.075 27.425 198.083 30.725 196.1C34.0644 194.102 36.6722 191.082 38.1625 187.487C39.7958 183.737 40.6125 179.221 40.6125 173.937C40.6125 168.687 39.7958 164.208 38.1625 160.5C36.6834 156.947 34.0969 153.965 30.7875 152C27.4958 150.05 23.3125 149.075 18.2375 149.075H0ZM9.8875 157.138H16.925C20.0167 157.138 22.5542 157.771 24.5375 159.037C26.5941 160.394 28.1486 162.387 28.9625 164.713C29.9458 167.229 30.4375 170.367 30.4375 174.125C30.4763 176.618 30.1905 179.106 29.5875 181.525C29.1563 183.438 28.321 185.236 27.1375 186.8C26.0499 188.202 24.609 189.289 22.9625 189.95C21.0331 190.671 18.9843 191.019 16.925 190.975H9.875V157.125L9.8875 157.138ZM102.663 163.175C101.735 165.707 101.298 168.392 101.375 171.088V177.275C101.375 180.35 101.804 182.963 102.663 185.113C103.378 187.09 104.677 188.803 106.387 190.025C108.172 191.152 110.252 191.722 112.363 191.663C114.096 191.687 115.811 191.31 117.375 190.562C118.769 189.853 119.948 188.782 120.788 187.462C121.636 186.086 122.137 184.525 122.25 182.913H131.813V183.862C131.692 186.882 130.712 189.805 128.988 192.288C127.279 194.704 124.988 196.596 122.113 197.962C119.034 199.377 115.675 200.078 112.287 200.012C107.787 200.012 103.979 199.112 100.863 197.312C97.7303 195.501 95.2367 192.763 93.725 189.475C92.1083 186.075 91.3 182.008 91.3 177.275V171.05C91.3 166.317 92.1208 162.242 93.7625 158.825C95.3875 155.4 97.7667 152.762 100.9 150.912C104.05 149.054 107.846 148.125 112.287 148.125C115.021 148.125 117.55 148.529 119.875 149.337C122.208 150.112 124.246 151.246 125.988 152.737C127.74 154.233 129.163 156.076 130.166 158.15C131.169 160.225 131.73 162.485 131.813 164.787V165.7H122.25C122.133 164.02 121.619 162.392 120.75 160.95C119.933 159.57 118.752 158.442 117.338 157.687C115.813 156.858 114.098 156.441 112.363 156.475C110.251 156.408 108.172 157.012 106.425 158.2C104.712 159.455 103.404 161.185 102.663 163.175Z" fill="black"/>
</g>
<defs>
<clipPath id="clip0_565_1934">
<rect width="200" height="200" fill="white"/>
</clipPath>
</defs>
</svg>
