<svg width="271" height="60" viewBox="0 0 271 60" fill="none" xmlns="http://www.w3.org/2000/svg">
<path fill-rule="evenodd" clip-rule="evenodd" d="M34.1765 0.148663C41.9801 1.10883 49.9059 6.04936 54.3227 12.7007C58.3903 18.7935 60.2583 25.6718 59.6822 32.3057C59.5774 33.6848 59.4378 35.0815 59.3854 35.4306L59.2807 36.0591L66.6827 36.1638C75.1497 36.286 75.5687 36.2686 75.7432 35.9194C75.8131 35.7972 76.4066 33.7896 77.0526 31.4852C77.6985 29.1808 78.3793 26.9462 78.5888 26.5097C78.9205 25.794 79.0078 25.7242 79.5665 25.7242C80.4044 25.7242 80.5092 26.0209 81.1551 29.8616C81.4344 31.6074 81.9931 34.9069 82.3772 37.1589C82.7612 39.411 83.2326 42.2391 83.4246 43.4437C83.8785 46.0449 83.8785 46.1147 84.088 45.9925C84.2975 45.8528 84.5768 44.2467 84.8911 41.3488C85.0307 39.9521 85.3101 37.6303 85.5021 36.1988C85.6941 34.7498 86.1306 31.3455 86.4623 28.6047C86.794 25.8638 87.1955 22.7563 87.3351 21.7089C87.4748 20.644 87.7541 18.2872 87.9636 16.4716C88.1557 14.6385 88.5048 11.8628 88.7318 10.2741C88.9762 8.68546 89.1682 7.14919 89.1682 6.85241C89.1682 6.1541 89.5173 5.87478 90.2331 5.94461C90.7045 5.97953 90.8267 6.10173 90.9489 6.52071C91.2631 7.67292 92.6946 19.9806 93.2707 26.4225C93.3406 27.0858 93.6199 29.5125 93.8992 31.782C94.1785 34.0689 94.4055 35.9718 94.4055 36.0242C94.4055 36.0765 98.4208 36.1115 103.326 36.1115H112.265L112.16 33.4404C112.108 31.9915 111.933 30.2457 111.793 29.5648C111.479 28.1682 110.763 26.597 110.362 26.4399C109.541 26.1257 108.703 27.6794 108.215 30.4028C108.04 31.4328 107.83 32.3406 107.778 32.4104C107.603 32.5676 106.12 31.747 105.928 31.3979C105.613 30.8218 106.416 27.4175 107.254 25.8114C108.162 24.0482 108.913 23.5943 110.711 23.6816C111.462 23.734 112.719 25.1131 113.207 26.4225C115.372 32.3232 114.552 44.2991 111.654 49.1698C110.851 50.4966 109.803 51.1774 108.668 51.0727C107.621 50.9854 107.01 50.4268 106.381 49.0301C105.928 48.0176 105.369 45.783 105.142 44.0198L105.02 43.112L105.928 42.2216C106.416 41.7503 106.888 41.3488 106.975 41.3488C107.167 41.3488 107.272 41.9598 107.411 43.8103C107.586 46.0623 108.354 48.3318 108.948 48.3318C109.541 48.3318 110.449 46.7083 111.043 44.6657C111.287 43.8103 111.636 41.8376 111.95 39.376L112.055 38.5555L107.726 38.5206C105.351 38.4857 101.022 38.4857 98.1065 38.5206C93.9865 38.5555 92.7994 38.5032 92.747 38.346C92.7121 38.2238 92.5899 37.4033 92.5026 36.5479C91.9614 31.6074 91.6996 29.3728 91.0711 24.3625C90.7045 21.3248 90.3902 18.5665 90.3902 18.2697C90.3902 17.9206 90.3204 17.7809 90.2331 17.8857C90.0585 18.0428 89.5348 21.447 89.1857 24.5894C89.0809 25.4972 88.8016 27.7318 88.5572 29.5648C88.3128 31.3804 88.0334 33.6325 87.9462 34.5403L87.9367 34.6225C87.8282 35.5629 87.6088 37.4641 87.4224 38.9047C86.9162 42.9549 86.6368 45.3117 86.0258 50.6013C85.7116 53.2374 85.4323 55.5069 85.3973 55.6291C85.345 55.7863 85.0307 55.8386 84.3324 55.8037L83.3199 55.7513L83.1104 54.442C82.9882 53.7262 82.6914 51.9979 82.447 50.6013C82.2026 49.2047 81.6789 46.1496 81.3122 43.7928C80.2299 37.1938 79.9156 35.4306 79.549 34.1562C79.3744 33.5277 79.2173 32.8818 79.2173 32.7247C79.2173 32.5676 79.1475 32.4454 79.0602 32.4454C78.9904 32.4454 78.7983 33.0215 78.6412 33.7023C78.2048 35.7798 77.6461 37.7525 77.3843 38.1016C77.1573 38.4159 76.8082 38.4159 70.1219 38.3984C66.2463 38.381 63.0341 38.3286 62.9468 38.2762C62.8769 38.2238 61.8819 38.2413 60.7471 38.3111L58.6696 38.4333L58.4427 39.2888C58.1285 40.5806 55.7193 45.2069 54.2529 47.3717C51.5644 51.352 46.8683 55.3324 42.6435 57.2003C40.2693 58.2478 37.2142 59.2429 35.3113 59.592C33.164 59.9936 28.5203 60.1332 26.373 59.8539C21.3626 59.2429 16.1777 57.1305 11.918 54.0056C10.0675 52.6613 7.11714 49.6237 5.66816 47.5986C4.25409 45.6433 2.26391 41.6979 1.53069 39.4633C0.273736 35.5703 -0.232536 31.4503 0.0991596 27.7667C0.62289 21.9882 2.12425 17.6063 5.14443 13.0499C9.57868 6.36359 17.5394 1.28341 25.3255 0.16612C26.8618 -0.0433719 32.4308 -0.0608293 34.1765 0.148663ZM14.9033 7.25394C18.4297 4.93207 22.4974 3.37833 26.3206 2.87206C27.3331 2.7324 28.7472 2.62765 29.463 2.6102C31.2436 2.59274 34.8225 3.02918 36.5333 3.46562C44.2671 5.50817 50.6391 10.7455 54.2878 18.0428C56.2081 21.866 56.9064 24.8862 56.9239 29.4776C56.9413 31.1709 56.854 33.1087 56.7318 33.842C56.4351 35.6576 55.1781 39.9871 54.602 41.2615C52.4896 45.8179 48.2649 50.5315 43.9354 53.1676C42.1023 54.3024 42.1372 54.3198 41.823 52.7486L41.797 52.6245C41.6298 51.8251 41.3013 50.255 41.0199 49.0301C40.7406 47.7383 40.2867 45.4862 40.0249 44.0547C39.7804 42.6057 39.5186 41.2266 39.4662 40.9472C39.3964 40.5283 39.4313 40.4759 39.8852 40.4759C40.374 40.4759 40.3915 40.5283 40.5835 41.6281C41.0025 44.0372 42.4515 45.3989 44.721 45.5037C45.8557 45.5561 46.0303 45.5211 46.7635 45.0498C47.2174 44.753 47.7761 44.2642 48.0205 43.95C48.5267 43.2517 49.0156 41.9074 49.0156 41.1742V40.6505H51.6691C53.8862 40.6505 54.3576 40.5981 54.6369 40.3537C54.8115 40.1966 54.9512 39.9522 54.9512 39.795C54.9512 39.5506 54.9162 39.5506 54.7766 39.7776C54.6718 39.9522 54.602 37.6303 54.602 33.0389V26.0384L52.9959 25.9162C52.123 25.8638 48.1427 25.8114 44.1449 25.794C40.1471 25.7765 36.6904 25.7242 36.446 25.6543C36.0969 25.567 35.9921 25.3925 35.9048 24.8513C35.8525 24.4672 35.7477 23.8562 35.6604 23.4896L35.5382 22.8436H37.4586C39.5186 22.8436 39.571 22.8262 39.5011 21.8835C39.4662 21.5867 39.4487 21.2724 39.4313 21.1502C39.4138 20.9931 38.7854 20.9233 37.1967 20.8884L34.9796 20.836L34.8399 20.0504C34.7701 19.614 34.6828 19.0553 34.6304 18.776L34.5431 18.3046H43.7783V16.4367L41.6484 16.3319C40.4962 16.2621 38.2965 16.2097 36.7777 16.2097H34.0194L33.9147 15.5987C33.8623 15.267 33.7925 14.7258 33.7401 14.4116L33.6528 13.818L36.8126 13.7133C38.5584 13.6434 41.9801 13.5911 44.4242 13.5911H48.841V11.7231L43.2196 11.6184C40.1121 11.5485 36.5333 11.4962 35.2764 11.4962C33.0243 11.4962 32.9545 11.4787 32.8847 11.0946C32.8323 10.8851 32.6053 9.83767 32.3609 8.79021C32.1165 7.7253 31.8372 6.38105 31.715 5.77003C31.4357 4.28613 31.2262 4.0941 30.0042 4.23376C29.4804 4.30359 29.0091 4.37342 28.9741 4.40834C28.9218 4.46071 27.8219 9.15682 27.4204 11.0073L27.3331 11.4962L25.6397 11.5136C24.7145 11.5311 21.0658 11.566 17.5219 11.6009C12.5465 11.6533 11.0451 11.7056 10.9229 11.8802C10.8531 12.0024 10.7833 12.404 10.7833 12.7531C10.7833 13.3816 10.8007 13.399 11.5339 13.4863C11.9355 13.5387 15.4619 13.6085 19.3724 13.626C23.2655 13.6609 26.5126 13.7307 26.565 13.7831C26.6697 13.8879 26.2508 15.9828 26.1111 16.1399C26.0762 16.1748 23.8591 16.2097 21.188 16.2097C18.517 16.2272 16.23 16.2796 16.0904 16.3319C15.9333 16.3843 15.846 16.6811 15.846 17.0826C15.846 18.3745 15.5317 18.3046 20.769 18.3046H25.5001L25.3779 18.9506C25.3255 19.3172 25.2731 19.8758 25.2731 20.1726V20.7487H20.385V22.8436H22.4799C24.0511 22.8436 24.5748 22.896 24.5748 23.0531C24.5574 23.1753 24.313 24.3275 23.9987 25.6194L23.4401 27.9413L21.415 27.9238L19.4073 27.8889L18.9011 28.8142C17.9584 30.5948 17.3648 31.6598 16.9633 32.3755L16.5443 33.0738L14.1526 33.3008C10.469 33.615 6.69816 34.034 6.5585 34.1213C6.48867 34.1737 6.41884 35.2735 6.41884 36.5654V38.9047H5.99985C5.24917 38.9047 5.02222 39.0793 5.02222 39.6728C5.02222 40.5283 5.26663 40.6505 7.04731 40.6505H8.65342L8.77562 41.2964C8.93274 42.2042 9.57867 43.5834 10.1722 44.2817C11.2895 45.6084 13.1226 45.9227 14.7112 45.0498C15.8809 44.4039 16.7014 43.0771 17.1378 41.1218C17.2775 40.5108 17.4346 40.5283 18.1504 41.244C18.5868 41.6805 18.9709 41.8725 19.5645 41.9598C20.0184 42.0296 20.385 42.0994 20.385 42.1169C20.385 42.4835 17.6267 53.9357 17.5219 54.058C17.3823 54.1976 15.008 52.7312 13.3146 51.4568C11.8307 50.3395 9.50884 48.0001 8.23443 46.3242C7.4663 45.3291 5.70307 42.5359 5.16188 41.4361C4.63815 40.4061 3.59069 36.9669 3.18917 34.9767C2.3512 30.7869 2.70035 25.6718 4.07951 21.447C4.7429 19.4394 6.64579 15.7733 7.93765 14.0275C9.68342 11.6707 12.8258 8.61564 14.9033 7.25394ZM30.3009 16.2097H28.8345L29.3582 13.5911H30.9643L31.2786 14.5862C31.4531 15.1448 31.6277 15.7384 31.6626 15.8955C31.7499 16.1748 31.6103 16.2097 30.3009 16.2097ZM27.7521 20.6614C27.7347 20.644 27.8743 20.1028 28.0663 19.4743L28.433 18.3046H31.8721L32.0642 18.8633C32.1689 19.1775 32.2911 19.7536 32.3609 20.1377L32.4657 20.8535L30.1264 20.7836C28.8519 20.7487 27.787 20.6964 27.7521 20.6614ZM27.1236 23.926C27.176 23.4721 27.2633 23.0531 27.3157 22.9658C27.3506 22.896 28.6599 22.8436 30.2311 22.8436H33.0767L33.2513 23.926C33.356 24.537 33.4957 25.2004 33.5655 25.4099L33.6877 25.8114L30.4406 25.8464L27.1935 25.8987L27.1411 31.4503C27.0713 37.316 27.0713 37.316 26.2857 37.3335C25.9889 37.3335 25.9714 37.0193 25.9714 33.2659C25.9714 29.0237 26.2333 26.2828 26.7396 25.2703C26.8792 24.9909 27.0538 24.3799 27.1236 23.926ZM28.5028 41.3488C28.5202 41.0171 28.5552 40.6854 28.5552 40.5981C28.5901 40.4584 28.8869 40.441 29.428 40.5806C29.7074 40.6679 29.8121 40.825 29.8121 41.1916C29.8121 41.4535 29.9169 41.7328 30.0391 41.8201C30.266 41.9772 30.1438 41.9772 34.2289 42.0122L34.243 42.0123C37.0921 42.0471 37.1443 42.0477 37.1443 42.4311C37.1443 42.6406 37.4935 44.4039 37.9299 46.3417C38.8377 50.3744 39.5884 54.2849 39.5884 54.9134C39.5884 55.2451 39.4138 55.4022 38.7679 55.6815C37.0047 56.4322 32.5006 57.2352 30.0216 57.2352C26.6872 57.2352 20.8214 55.9783 20.3151 55.1578C20.158 54.9134 21.5197 48.2969 22.864 42.885L23.056 42.0471L25.7794 42.0122L28.4853 41.9598L28.5028 41.3488Z" fill="#BF0000"/>
<path d="M119.545 24.537C119.545 24.8164 119.353 27.3477 119.108 30.1759C118.864 33.004 118.672 35.3782 118.672 35.4481C118.672 35.5354 119.527 35.5877 120.575 35.5877H122.46L122.582 33.9642L122.603 33.6992C122.68 32.7327 122.822 30.9613 122.949 29.5648C123.088 28.0286 123.246 26.1606 123.298 25.4099L123.42 24.0657H125.655L125.567 25.3226C125.498 26.0209 125.358 27.7667 125.218 29.2157C125.079 30.6472 124.887 33.1611 124.782 34.8021C124.677 36.4257 124.555 37.8921 124.52 38.0318C124.485 38.1715 124.328 40.0918 124.171 42.3089C124.014 44.5086 123.787 47.3018 123.682 48.5064L123.455 50.6886L122.512 50.6537C122.006 50.6188 121.517 50.549 121.447 50.4791C121.378 50.3918 121.378 49.3618 121.465 48.1573C121.779 43.8103 122.163 38.9745 122.25 38.2937L122.338 37.5954L118.584 37.6303L118.375 39.7077C118.253 40.8599 118.008 43.7405 117.816 46.1147C117.624 48.5064 117.45 50.4791 117.415 50.514C117.31 50.6188 115.529 50.6712 115.425 50.5664C115.232 50.3569 115.913 40.3886 116.664 32.9691C116.804 31.5725 117.013 29.0062 117.135 27.243L117.345 24.0657H118.445C119.527 24.0657 119.545 24.0657 119.545 24.537Z" fill="#BF0000"/>
<path d="M135.187 24.153C135.256 24.2926 135.222 24.8687 135.152 25.4274L134.995 26.4225L129.722 26.5272L129.443 29.7045C129.286 31.4503 129.094 33.5277 129.042 34.3133L128.919 35.7623L130.822 35.7798C132.638 35.7798 134.017 35.8671 134.122 35.9718C134.157 36.0067 134.139 36.3908 134.087 36.8447L133.982 37.6827H128.832L128.64 39.376C128.535 40.3188 128.361 42.2216 128.273 43.6183C128.169 45.0149 128.046 46.6035 127.994 47.1447L127.889 48.1573H130.77C132.358 48.1573 133.703 48.2096 133.738 48.2795C133.825 48.4191 133.581 50.4093 133.476 50.514C133.354 50.6362 125.672 50.6712 125.55 50.549C125.48 50.4791 125.55 48.8381 125.707 46.8828C126.196 41.1567 126.667 35.0989 126.772 33.3182C126.912 31.3281 127.575 24.4148 127.662 24.1006C127.715 23.9435 128.623 23.8911 131.416 23.8911C134.541 23.8911 135.117 23.926 135.187 24.153Z" fill="#BF0000"/>
<path fill-rule="evenodd" clip-rule="evenodd" d="M142.711 24.3275C143.165 24.6243 143.619 25.4448 144.09 26.8589C144.369 27.6445 144.422 28.3079 144.404 30.6123C144.387 34.1562 143.95 36.7225 143.043 38.5381C142.205 40.1791 141.89 40.3711 139.726 40.4759L137.962 40.5632L137.683 44.0547C137.508 45.975 137.334 48.2271 137.264 49.0651L137.142 50.6013H136.025C135.414 50.6013 134.907 50.549 134.907 50.4617C134.907 50.2696 135.396 44.0023 135.606 41.6106C135.867 38.4857 136.478 31.1011 136.566 29.914C136.845 26.2653 137.037 24.2926 137.107 24.0831C137.212 23.7514 142.135 23.9609 142.711 24.3275ZM138.277 37.9096C138.137 37.543 138.87 28.273 139.132 27.243C139.307 26.5447 139.342 26.5097 139.987 26.5097C141.751 26.5097 142.082 27.1208 142.205 30.717C142.327 34.6799 141.663 37.4382 140.424 37.9445C139.551 38.3111 138.416 38.2937 138.277 37.9096Z" fill="#BF0000"/>
<path d="M153.604 24.0133C153.831 24.0657 153.884 24.2402 153.814 24.9036C153.657 26.5621 153.901 26.4225 151.16 26.4225H148.734L148.542 28.0809C148.332 29.9489 148.053 32.9691 147.913 34.8021C147.686 37.8049 147.093 44.4562 146.848 46.7257C146.709 48.0874 146.639 49.292 146.691 49.3793C146.761 49.484 146.761 49.7808 146.691 50.0601C146.604 50.514 146.499 50.5664 145.609 50.6712C145.068 50.741 144.596 50.741 144.544 50.6886C144.492 50.6537 144.579 48.9429 144.753 46.9003C144.911 44.8578 145.19 40.8949 145.399 38.1191C145.591 35.3259 145.871 31.9565 145.993 30.6123C146.115 29.2681 146.29 27.2953 146.342 26.2479C146.412 25.183 146.482 24.2228 146.534 24.1006C146.586 23.926 147.32 23.8736 149.956 23.9086C151.806 23.926 153.447 23.9609 153.604 24.0133Z" fill="#BF0000"/>
<path fill-rule="evenodd" clip-rule="evenodd" d="M160.081 23.7165C160.622 23.7165 161.722 24.9036 162.211 25.986C162.473 26.5621 162.892 27.8016 163.136 28.7443C163.957 31.9216 163.852 39.2538 162.909 43.2691C161.879 47.6335 160.954 49.519 159.296 50.6537C155.019 53.5691 152.382 43.2691 154.477 31.8343C155.141 28.2555 156.153 25.5496 157.218 24.537C157.812 23.9609 158.929 23.507 159.435 23.6292C159.627 23.6816 159.924 23.7165 160.081 23.7165ZM156.817 31.3979C157.305 29.0062 157.742 27.9587 158.789 26.5447C159.016 26.2479 159.278 25.986 159.365 25.986C159.558 25.986 160.186 26.9113 160.588 27.8191C161.041 28.8316 161.618 32.777 161.618 34.8021C161.618 37.0716 161.007 42.0471 160.483 43.9674C159.767 46.6035 158.51 48.5413 157.724 48.2271C157.375 48.1049 156.625 46.5861 156.398 45.5386C155.682 42.1518 155.856 36.0067 156.817 31.3979Z" fill="#BF0000"/>
<path d="M171.691 24.118C172.354 24.5545 173.157 25.986 173.559 27.3826C173.89 28.6047 174.239 31.5026 174.082 31.9565C173.96 32.3406 173.349 32.6199 172.598 32.6199C172.11 32.6199 172.092 32.585 172.092 31.782C172.092 29.7743 171.045 26.3352 170.434 26.3352C169.7 26.3352 168.828 27.9936 168.164 30.5948C167.152 34.5577 166.837 41.6455 167.501 44.8403C167.885 46.621 168.496 48.1223 168.915 48.2795C169.666 48.5762 171.01 45.3466 171.376 42.4137C171.464 41.7154 171.568 41.1044 171.621 41.0694C171.743 40.9298 173.209 41.6281 173.471 41.9423C173.698 42.2042 173.663 42.4835 173.314 44.1071C172.302 48.7159 171.097 50.7759 169.159 51.1949C168.391 51.3695 167.344 50.7584 166.68 49.7284C165.79 48.3318 165.092 45.0847 164.847 41.1742C164.725 39.1491 165.109 33.7896 165.563 31.363C166.314 27.2779 167.92 24.1704 169.508 23.6816C170.119 23.507 171.062 23.6991 171.691 24.118Z" fill="#BF0000"/>
<path d="M184.295 24.0308C184.697 24.118 184.714 24.1355 184.609 25.5321C184.278 30.0886 183.946 34.3133 183.789 35.7623C183.579 37.6652 183.178 42.885 182.898 47.1971C182.811 48.8206 182.689 50.2696 182.654 50.3744C182.602 50.5315 182.2 50.6013 181.502 50.6013H180.419L180.542 48.5413C180.611 47.424 180.769 45.364 180.908 43.9674C181.03 42.5708 181.188 40.7203 181.257 39.8649C181.31 38.992 181.502 36.4082 181.694 34.1038C181.868 31.7994 182.078 29.1459 182.13 28.2031L182.253 26.5097H180.402C179.389 26.5097 178.551 26.5621 178.551 26.6145C178.551 26.7542 177.923 33.9118 177.591 37.4208C177.452 38.9571 177.26 41.5408 177.155 43.1818C176.963 46.0972 176.509 50.6013 176.387 50.7235C176.352 50.7584 175.88 50.741 175.339 50.6712L174.362 50.549V49.7459C174.362 48.9603 174.536 46.9352 175.235 39.5157C175.427 37.4906 175.671 34.5054 175.758 32.8818C175.846 31.2408 176.038 28.7792 176.195 27.3826C176.334 25.986 176.457 24.6243 176.457 24.3625V23.8562L180.175 23.9086C182.2 23.9435 184.068 23.9958 184.295 24.0308Z" fill="#BF0000"/>
<path d="M194.281 25.1131C194.263 25.7242 194.194 26.3003 194.159 26.3701C194.106 26.4574 192.849 26.5097 191.365 26.5097C188.921 26.5097 188.677 26.5447 188.677 26.8065C188.677 27.3128 188.171 33.842 188.066 34.8371L187.961 35.7623H193.216V36.1813C193.216 36.4082 193.164 36.8447 193.111 37.1415L193.006 37.6827H190.405C187.926 37.6827 187.804 37.7001 187.804 38.0318C187.804 38.381 187.193 45.8005 187.036 47.3193L186.949 48.1573H192.919L192.797 48.9603C192.745 49.4142 192.692 49.9554 192.692 50.1823V50.6013H184.662V49.3618C184.662 48.681 184.819 46.3417 185.011 44.1769C185.465 38.8174 186.006 32.5326 186.32 28.5174C186.565 25.4972 186.704 24.3101 186.844 24.0657C186.879 24.0133 188.572 23.9784 190.615 23.9784H194.333L194.281 25.1131Z" fill="#BF0000"/>
<path d="M197.895 25.7591C197.772 27.6445 197.336 32.4104 197.057 35.1513C196.969 36.1115 196.725 39.1316 196.533 41.8725C196.341 44.6133 196.149 47.1447 196.114 47.4939L196.044 48.1573H197.947C199.361 48.1573 199.85 48.1049 199.85 47.9303C199.85 47.8256 200.007 45.8354 200.199 43.531C200.391 41.2266 200.705 37.4208 200.897 35.064C201.089 32.7072 201.369 29.4601 201.508 27.8191C201.648 26.1955 201.77 24.6941 201.77 24.4672C201.77 24.0831 201.84 24.0657 202.905 24.0657H204.057L203.952 25.0608C203.9 25.6194 203.778 27.1731 203.691 28.5174C203.586 29.8616 203.429 31.6598 203.341 32.5326C203.062 35.1164 202.207 45.0323 202.067 47.5462C202.032 48.0001 202.102 48.07 202.521 48.1223C202.783 48.1573 202.992 48.2271 202.992 48.2969C202.992 48.3667 202.905 48.9603 202.8 49.6412C202.695 50.3045 202.521 52.4344 202.416 54.3547L202.207 57.8463L201.299 57.8986C200.234 57.9685 200.269 58.0907 200.531 55.6641C200.618 54.8435 200.758 53.3771 200.81 52.382L200.932 50.6013H193.687L193.809 48.3667C193.932 45.8179 194.49 39.0094 194.874 35.064C195.014 33.5801 195.224 31.2582 195.311 29.914C195.503 27.1557 195.625 25.6718 195.765 24.7291L195.869 24.0831L196.847 24.0308C197.388 23.9958 197.877 23.9958 197.929 24.0133C197.982 24.0308 197.964 24.8164 197.895 25.7591Z" fill="#BF0000"/>
<path d="M213.799 24.0482C213.973 24.1704 213.991 24.4323 213.886 25.3052L213.729 26.4225H210.935L210.813 27.6445C210.586 29.9489 209.504 42.9898 209.364 45.0149C209.312 45.7306 209.19 47.2844 209.067 48.454L208.875 50.6013H207.758C206.763 50.6013 206.641 50.5664 206.728 50.2871C206.781 50.13 206.903 48.6112 207.007 46.9352C207.112 45.2593 207.304 42.6232 207.444 41.0869C208.09 33.9467 208.579 26.7018 208.456 26.4748C208.422 26.405 207.793 26.3875 207.095 26.4574L205.785 26.5621V23.8911H209.679C211.808 23.8911 213.659 23.9609 213.799 24.0482Z" fill="#BF0000"/>
<path d="M217.133 26.5272V26.9986C217.133 27.2604 216.976 29.303 216.784 31.555C216.592 33.8071 216.47 35.675 216.504 35.7274C216.539 35.7623 217.657 35.8147 219.001 35.8496C220.328 35.8845 221.48 35.9194 221.55 35.9369C221.62 35.9369 221.672 36.3035 221.637 36.7574L221.585 37.5954L216.312 37.7001L216.19 39.5681C216.12 40.5981 215.946 42.501 215.806 43.7928C215.684 45.0847 215.562 46.6035 215.562 47.1447V48.1573H218.338C219.874 48.1573 221.166 48.2271 221.218 48.3144C221.27 48.4017 221.27 48.9429 221.218 49.5364L221.096 50.6013H217.115C214.025 50.6013 213.118 50.549 213.118 50.3744C213.135 49.7983 213.659 42.6232 213.799 41.1742C213.903 40.2664 214.025 38.7999 214.078 37.9445C214.13 37.0716 214.287 35.1164 214.427 33.5801C214.567 32.0438 214.759 29.2855 214.881 27.435C215.055 24.6243 215.143 24.0657 215.37 23.9958C215.527 23.9609 217.203 23.9435 219.123 23.9609L222.58 23.9784V26.4225L217.133 26.5272Z" fill="#BF0000"/>
<path d="M225.932 24.4497C225.961 24.6387 226.135 25.6026 226.344 26.7565L226.473 27.4699C227.119 31.1709 227.485 32.9691 227.608 32.9691C227.66 32.9691 227.939 32.2359 228.236 31.3455C228.55 30.4726 229.249 28.465 229.79 26.8938L230.802 24.0657H231.902C232.862 24.0657 233.019 24.118 233.019 24.3799C233.019 24.5545 232.042 27.627 230.837 31.2233C229.633 34.8196 228.655 37.962 228.655 38.2064C228.655 38.4508 229.179 41.2964 229.825 44.5261C230.453 47.7732 230.942 50.4617 230.89 50.5315C230.837 50.5839 230.348 50.6712 229.807 50.7235C228.917 50.8108 228.83 50.7934 228.69 50.4093C228.463 49.8332 227.415 45.0323 227.171 43.4437C227.049 42.7279 226.909 42.2566 226.857 42.3962C226.787 42.5359 226.159 44.3864 225.425 46.4988C224.71 48.6112 223.994 50.4268 223.837 50.549C223.575 50.741 221.916 50.6886 221.672 50.4791C221.637 50.4442 221.724 49.9554 221.881 49.4142C222.143 48.5064 225.111 39.8649 225.774 38.0318L226.071 37.2462L224.832 31.0487C224.133 27.6445 223.54 24.6767 223.47 24.4497C223.383 24.0831 223.418 24.0657 224.622 24.0657C225.757 24.0657 225.862 24.1006 225.932 24.4497Z" fill="#BF0000"/>
<path d="M236.336 24.1879C236.336 24.2752 236.144 26.8065 235.9 29.8267C235.656 32.8469 235.463 35.3782 235.463 35.4481C235.463 35.5354 236.336 35.5877 237.384 35.5877H239.304V34.645C239.304 34.1387 239.426 32.5501 239.566 31.1535C239.723 29.7394 239.898 27.5747 239.968 26.3701L240.09 24.153L241.294 24.1006C242.342 24.0482 242.481 24.0831 242.377 24.3275C242.324 24.4847 242.185 25.9336 242.097 27.5223C241.993 29.1284 241.888 30.5948 241.836 30.8043C241.801 30.9964 241.678 32.6199 241.574 34.3832C241.469 36.1464 241.312 38.2238 241.225 38.992C241.12 39.7601 240.98 41.6106 240.875 43.0945C240.683 46.0972 240.369 49.7808 240.247 50.3918C240.16 50.8108 239.706 50.8806 238.606 50.6537L238.03 50.549L238.152 49.3095C238.379 46.6734 238.972 37.8049 238.92 37.7699C238.885 37.735 238.047 37.6827 237.035 37.6652L235.219 37.6128L235.167 38.6603C235.132 39.2189 234.992 40.9822 234.852 42.5708C234.643 44.9974 234.241 50.0427 234.241 50.4617C234.241 50.549 233.735 50.6013 233.107 50.6013C232.147 50.6013 231.972 50.549 231.972 50.2871C231.972 49.903 232.443 44.6832 232.67 42.6232C232.758 41.7328 232.967 39.184 233.107 36.9494C233.578 29.722 233.718 28.0286 233.91 26.0209L234.119 24.0657H235.237C235.83 24.0657 236.336 24.118 236.336 24.1879Z" fill="#BF0000"/>
<path d="M246.043 25.4099C245.99 26.1606 245.868 27.7842 245.764 29.0411C245.659 30.2806 245.467 32.3231 245.327 33.5801C245.187 40.2577 244.192 43.0073 245.571 38.7999C246.043 36.9494 249.779 25.1131 250.128 24.4148C250.215 24.2402 250.582 24.1355 251.263 24.1006L252.258 24.0482L252.153 25.148C252.101 25.7591 252.013 26.8764 251.961 27.6445C251.682 31.7994 251.14 38.6079 250.914 40.7377C250.774 42.082 250.564 44.3515 250.46 45.8005C250.372 47.232 250.233 48.8905 250.163 49.4666L250.041 50.514L249.168 50.6362C248.696 50.7061 248.242 50.7061 248.155 50.6188C248.085 50.549 248.103 49.3967 248.208 48.0525C248.469 44.5959 249.063 37.735 249.185 36.8098L249.29 36.0242L249.626 32.9691C249.294 34.1213 246.34 43.3389 245.589 45.6608C244.821 47.9827 244.192 50.0078 244.192 50.1649C244.192 50.549 243.494 50.7584 242.639 50.6537C241.783 50.5315 241.801 50.933 242.255 45.9925C242.447 43.9674 242.691 41.0869 242.778 39.603C243.25 32.812 243.896 25.4797 244.122 24.4497C244.192 24.1006 244.297 24.0657 245.187 24.0657H246.165L246.043 25.4099Z" fill="#BF0000"/>
<path d="M256.413 24.4497C256.395 25.567 255.871 32.6898 255.714 33.8245C255.61 34.5577 255.535 35.3215 255.518 35.4787C255.501 35.6358 255.522 35.7623 255.627 35.7972C255.976 35.902 256.57 34.3657 257.111 31.9216C257.949 28.0809 258.316 26.6843 258.804 25.6019C259.171 24.7814 259.363 24.5719 259.922 24.345C260.306 24.1879 260.812 24.0657 261.074 24.0657C261.51 24.0657 261.51 24.1006 261.423 24.8687C261.388 25.3052 261.179 25.8987 260.969 26.1606C260.568 26.7367 260.096 28.3603 259.555 31.0487C258.944 34.2086 258.333 36.1638 257.879 36.5828L257.443 36.9843L257.792 37.4557C258.141 37.962 258.665 41.0345 259.031 44.8403C259.136 45.8528 259.293 47.1447 259.38 47.7208C259.468 48.2969 259.555 49.1873 259.555 49.6761V50.6013H257.478L257.39 49.8506C256.901 46.0449 256.762 44.7181 256.675 43.3564C256.57 41.9598 255.937 38.7956 255.78 38.621C255.745 38.5861 255.527 38.8523 255.387 38.992C255.191 39.4066 255.068 40.7901 254.842 44.3166C254.737 45.9925 254.58 48.035 254.492 48.8556C254.388 49.6761 254.318 50.3918 254.318 50.4617C254.318 50.549 253.794 50.6013 253.166 50.6013H252.013L252.118 49.6761C252.17 49.1873 252.345 46.9527 252.485 44.753C252.642 42.5359 252.834 40.1791 252.921 39.5157C253.008 38.8349 253.113 37.7001 253.183 36.9843C253.235 36.2686 253.393 34.453 253.532 32.9691C253.672 31.4852 253.864 28.9713 253.969 27.3826C254.073 25.794 254.196 24.3974 254.23 24.2752C254.283 24.1355 254.667 24.0657 255.365 24.0657C256.343 24.0657 256.413 24.1006 256.413 24.4497Z" fill="#BF0000"/>
<path fill-rule="evenodd" clip-rule="evenodd" d="M268.685 25.4099C268.738 26.1606 268.912 29.1284 269.069 32.0089C269.209 34.8894 269.454 39.3237 269.611 41.8725C269.75 44.4213 269.925 47.424 269.977 48.5588L270.082 50.6188L268.197 50.514L268.074 48.9778C268.022 48.1398 267.917 46.5686 267.865 45.4862L267.778 43.531L265.945 43.4786C263.832 43.4001 264.143 43.3148 264.024 43.8278C263.972 44.0547 263.78 44.98 263.588 45.8878C263.274 47.3891 262.697 50.3569 262.697 50.5315C262.697 50.5664 262.209 50.6013 261.633 50.6013H260.55L260.655 49.4666C260.707 48.8556 261.109 46.8305 261.545 44.98C262.244 41.9598 263.5 36.321 264.181 33.1786C264.321 32.5326 264.792 30.4377 265.229 28.5348C265.665 26.6319 266.014 24.8862 266.014 24.6767C266.014 24.118 266.137 24.0657 267.411 24.0657H268.581L268.685 25.4099ZM265.386 37.4208C265.945 34.7323 266.625 31.6947 266.817 31.0662C266.87 30.9265 266.922 30.8567 266.957 30.8916C266.992 30.9265 267.114 33.0389 267.219 35.5877C267.341 38.1366 267.463 40.4235 267.516 40.6854L267.621 41.1742H266.102C264.618 41.1742 264.583 41.1742 264.67 40.7727C264.723 40.5632 265.037 39.0444 265.386 37.4208Z" fill="#BF0000"/>
<path d="M110.862 14.1641H110.086V8.61802H106.967V14.1641H106.182V7.92689H110.862V14.1641ZM116.566 9.76135C116.566 10.3984 116.349 10.8876 115.913 11.2289C115.478 11.5674 114.865 11.7366 114.075 11.7366H113.358V14.1641H112.573V7.92689H114.224C115.785 7.92689 116.566 8.53838 116.566 9.76135ZM113.358 11.0625H113.985C114.605 11.0625 115.055 10.963 115.333 10.7639C115.612 10.562 115.751 10.2392 115.751 9.79548C115.751 9.39446 115.622 9.09441 115.363 8.89532C115.104 8.69623 114.7 8.59668 114.152 8.59668H113.358V11.0625ZM123.307 11.0369C123.307 12.0352 123.054 12.8202 122.547 13.3919C122.044 13.9636 121.339 14.2494 120.431 14.2494C119.513 14.2494 118.802 13.9692 118.298 13.4089C117.798 12.8458 117.547 12.0523 117.547 11.0284C117.547 10.0131 117.796 9.22666 118.294 8.66921C118.795 8.10892 119.51 7.82877 120.44 7.82877C121.344 7.82877 122.048 8.11318 122.552 8.68201C123.055 9.24799 123.307 10.033 123.307 11.0369ZM118.375 11.0369C118.375 11.8617 118.55 12.4903 118.9 12.9226C119.25 13.3549 119.76 13.5711 120.431 13.5711C121.1 13.5711 121.607 13.3578 121.954 12.9311C122.301 12.5045 122.475 11.8731 122.475 11.0369C122.475 10.2036 122.303 9.57649 121.959 9.15556C121.615 8.73178 121.108 8.51989 120.44 8.51989C119.763 8.51989 119.25 8.73462 118.9 9.16409C118.55 9.59071 118.375 10.215 118.375 11.0369ZM124.698 7.92689H125.431V11.3526C125.431 11.5944 125.424 11.9144 125.41 12.3125C125.396 12.7107 125.382 12.9695 125.367 13.089H125.406L128.836 7.92689H129.71V14.1641H128.977V10.7724C128.977 10.4767 128.986 10.1325 129.006 9.74002C129.026 9.34469 129.041 9.08872 129.049 8.97211H129.011L125.572 14.1641H124.698V7.92689ZM135.09 9.38593C135.09 9.7898 134.961 10.1211 134.702 10.38C134.443 10.6359 134.08 10.7995 133.614 10.8706V10.9047C134.143 10.9758 134.542 11.1393 134.813 11.3953C135.086 11.6513 135.222 11.9855 135.222 12.3979C135.222 12.9809 135.002 13.436 134.561 13.763C134.12 14.0873 133.502 14.2494 132.705 14.2494C131.957 14.2494 131.351 14.137 130.888 13.9124V13.1956C131.169 13.3293 131.471 13.4317 131.792 13.5028C132.116 13.5711 132.418 13.6052 132.697 13.6052C133.26 13.6052 133.684 13.5014 133.968 13.2938C134.255 13.0861 134.399 12.7875 134.399 12.3979C134.399 12.0253 134.238 11.7437 133.917 11.5532C133.595 11.3598 133.116 11.2631 132.479 11.2631H131.587V10.6061H132.432C133.049 10.6061 133.51 10.5037 133.814 10.2989C134.122 10.0913 134.275 9.81255 134.275 9.46272C134.275 9.16124 134.161 8.92376 133.934 8.75027C133.709 8.57393 133.405 8.48576 133.021 8.48576C132.697 8.48576 132.404 8.52416 132.142 8.60095C131.883 8.67774 131.599 8.8171 131.289 9.01904L130.913 8.48576C131.514 8.05346 132.219 7.8373 133.029 7.8373C133.669 7.8373 134.173 7.97666 134.54 8.25539C134.907 8.53411 135.09 8.91096 135.09 9.38593ZM136.54 7.92689H138.319C139.156 7.92689 139.759 8.05203 140.128 8.30232C140.501 8.54976 140.687 8.9394 140.687 9.47125C140.687 9.84099 140.586 10.1467 140.384 10.3885C140.182 10.6274 139.888 10.7824 139.501 10.8535V10.8962C139.982 10.9786 140.335 11.145 140.559 11.3953C140.787 11.6456 140.901 11.9769 140.901 12.3893C140.901 12.9468 140.71 13.3819 140.329 13.6948C139.948 14.0076 139.416 14.1641 138.733 14.1641H136.54V7.92689ZM137.325 10.5805H138.477C138.967 10.5805 139.322 10.5022 139.544 10.3458C139.766 10.1894 139.877 9.92774 139.877 9.56084C139.877 9.21955 139.754 8.97353 139.51 8.82279C139.268 8.67205 138.884 8.59668 138.358 8.59668H137.325V10.5805ZM137.325 11.2375V13.4985H138.584C139.085 13.4985 139.456 13.4018 139.697 13.2084C139.939 13.015 140.06 12.7221 140.06 12.3296C140.06 11.957 139.932 11.6826 139.676 11.5062C139.42 11.327 139.036 11.2375 138.524 11.2375H137.325ZM147.667 11.0369C147.667 12.0352 147.414 12.8202 146.907 13.3919C146.404 13.9636 145.699 14.2494 144.791 14.2494C143.873 14.2494 143.162 13.9692 142.658 13.4089C142.158 12.8458 141.907 12.0523 141.907 11.0284C141.907 10.0131 142.156 9.22666 142.654 8.66921C143.155 8.10892 143.87 7.82877 144.8 7.82877C145.704 7.82877 146.408 8.11318 146.912 8.68201C147.415 9.24799 147.667 10.033 147.667 11.0369ZM142.735 11.0369C142.735 11.8617 142.91 12.4903 143.26 12.9226C143.61 13.3549 144.12 13.5711 144.791 13.5711C145.46 13.5711 145.967 13.3578 146.314 12.9311C146.661 12.5045 146.835 11.8731 146.835 11.0369C146.835 10.2036 146.663 9.57649 146.319 9.15556C145.974 8.73178 145.468 8.51989 144.8 8.51989C144.123 8.51989 143.61 8.73462 143.26 9.16409C142.91 9.59071 142.735 10.215 142.735 11.0369ZM153.959 15.8065H153.209V14.1641H148.917V15.8065H148.166V13.4644H148.648C149.069 12.7477 149.433 11.8788 149.74 10.8578C150.047 9.83672 150.228 8.85977 150.282 7.92689H153.166V13.4644H153.959V15.8065ZM152.385 13.4644V8.63508H150.973C150.919 9.34327 150.745 10.1695 150.453 11.1137C150.162 12.058 149.837 12.8415 149.476 13.4644H152.385ZM157.675 8.52843C157.004 8.52843 156.476 8.75311 156.092 9.20248C155.708 9.65186 155.517 10.2662 155.517 11.0455C155.517 11.8504 155.703 12.4718 156.075 12.9098C156.448 13.345 156.978 13.5625 157.667 13.5625C158.11 13.5625 158.609 13.48 159.164 13.3151V13.9977C158.9 14.0944 158.645 14.1598 158.4 14.1939C158.156 14.2309 157.874 14.2494 157.556 14.2494C156.637 14.2494 155.929 13.9707 155.431 13.4132C154.936 12.8529 154.689 12.0608 154.689 11.0369C154.689 10.3942 154.807 9.83104 155.043 9.34753C155.282 8.86403 155.627 8.49145 156.08 8.22979C156.535 7.96813 157.069 7.8373 157.684 7.8373C158.344 7.8373 158.918 7.9596 159.407 8.20419L159.092 8.86972C158.594 8.64219 158.122 8.52843 157.675 8.52843ZM162.5 14.1641H161.711V8.61802H159.761V7.92689H164.437V8.61802H162.5V14.1641ZM165.388 7.92689H167.167C168.004 7.92689 168.607 8.05203 168.976 8.30232C169.349 8.54976 169.535 8.9394 169.535 9.47125C169.535 9.84099 169.434 10.1467 169.232 10.3885C169.03 10.6274 168.736 10.7824 168.349 10.8535V10.8962C168.83 10.9786 169.183 11.145 169.407 11.3953C169.635 11.6456 169.749 11.9769 169.749 12.3893C169.749 12.9468 169.558 13.3819 169.177 13.6948C168.796 14.0076 168.264 14.1641 167.581 14.1641H165.388V7.92689ZM166.173 10.5805H167.325C167.815 10.5805 168.17 10.5022 168.392 10.3458C168.614 10.1894 168.725 9.92774 168.725 9.56084C168.725 9.21955 168.602 8.97353 168.358 8.82279C168.116 8.67205 167.732 8.59668 167.206 8.59668H166.173V10.5805ZM166.173 11.2375V13.4985H167.432C167.933 13.4985 168.304 13.4018 168.545 13.2084C168.787 13.015 168.908 12.7221 168.908 12.3296C168.908 11.957 168.78 11.6826 168.524 11.5062C168.268 11.327 167.884 11.2375 167.372 11.2375H166.173ZM174.557 14.1641H171.071V7.92689H174.557V8.61802H171.856V10.5634H174.399V11.246H171.856V13.4729H174.557V14.1641ZM180.704 14.1641H179.919V11.2545H176.719V14.1641H175.934V7.92689H176.719V10.5634H179.919V7.92689H180.704V14.1641ZM187.18 14.1641H186.395V11.2545H183.196V14.1641H182.411V7.92689H183.196V10.5634H186.395V7.92689H187.18V14.1641ZM194.33 11.0369C194.33 12.0352 194.077 12.8202 193.571 13.3919C193.068 13.9636 192.362 14.2494 191.455 14.2494C190.536 14.2494 189.825 13.9692 189.322 13.4089C188.821 12.8458 188.571 12.0523 188.571 11.0284C188.571 10.0131 188.82 9.22666 189.318 8.66921C189.818 8.10892 190.533 7.82877 191.463 7.82877C192.368 7.82877 193.072 8.11318 193.575 8.68201C194.079 9.24799 194.33 10.033 194.33 11.0369ZM189.399 11.0369C189.399 11.8617 189.574 12.4903 189.923 12.9226C190.273 13.3549 190.784 13.5711 191.455 13.5711C192.123 13.5711 192.631 13.3578 192.978 12.9311C193.325 12.5045 193.498 11.8731 193.498 11.0369C193.498 10.2036 193.326 9.57649 192.982 9.15556C192.638 8.73178 192.132 8.51989 191.463 8.51989C190.787 8.51989 190.273 8.73462 189.923 9.16409C189.574 9.59071 189.399 10.215 189.399 11.0369ZM199.198 14.1641H195.713V7.92689H199.198V8.61802H196.498V10.5634H199.04V11.246H196.498V13.4729H199.198V14.1641ZM210.047 11.0369C210.047 12.0352 209.794 12.8202 209.288 13.3919C208.784 13.9636 208.079 14.2494 207.172 14.2494C206.253 14.2494 205.542 13.9692 205.038 13.4089C204.538 12.8458 204.288 12.0523 204.288 11.0284C204.288 10.0131 204.536 9.22666 205.034 8.66921C205.535 8.10892 206.25 7.82877 207.18 7.82877C208.085 7.82877 208.788 8.11318 209.292 8.68201C209.795 9.24799 210.047 10.033 210.047 11.0369ZM205.115 11.0369C205.115 11.8617 205.29 12.4903 205.64 12.9226C205.99 13.3549 206.5 13.5711 207.172 13.5711C207.84 13.5711 208.348 13.3578 208.695 12.9311C209.042 12.5045 209.215 11.8731 209.215 11.0369C209.215 10.2036 209.043 9.57649 208.699 9.15556C208.355 8.73178 207.848 8.51989 207.18 8.51989C206.503 8.51989 205.99 8.73462 205.64 9.16409C205.29 9.59071 205.115 10.215 205.115 11.0369ZM215.508 12.3381C215.508 12.9525 215.323 13.4104 214.953 13.7118C214.583 14.0133 214.017 14.1641 213.255 14.1641H211.429V7.92689H215.132V8.61802H212.214V10.5634H213.14C213.936 10.5634 214.529 10.7042 214.919 10.9858C215.311 11.2673 215.508 11.7181 215.508 12.3381ZM212.214 13.49H213.174C213.709 13.49 214.096 13.4004 214.334 13.2212C214.576 13.0392 214.697 12.7448 214.697 12.3381C214.697 11.94 214.572 11.6584 214.322 11.4934C214.071 11.3285 213.646 11.246 213.046 11.246H212.214V13.49ZM221.557 12.3381C221.557 12.9297 221.368 13.3819 220.99 13.6948C220.614 14.0076 220.067 14.1641 219.347 14.1641H217.474V8.61802H216.024V7.92689H218.255V10.5634H219.241C219.997 10.5634 220.572 10.7127 220.964 11.0113C221.359 11.3071 221.557 11.7494 221.557 12.3381ZM218.255 13.49H219.266C219.772 13.49 220.145 13.3961 220.384 13.2084C220.623 13.0179 220.742 12.7278 220.742 12.3381C220.742 11.957 220.617 11.6797 220.367 11.5062C220.119 11.3327 219.713 11.246 219.147 11.246H218.255V13.49ZM226.34 14.1641H222.854V7.92689H226.34V8.61802H223.639V10.5634H226.182V11.246H223.639V13.4729H226.34V14.1641ZM232.713 15.8065H231.962V14.1641H227.671V15.8065H226.92V13.4644H227.402C227.823 12.7477 228.187 11.8788 228.494 10.8578C228.801 9.83672 228.982 8.85977 229.036 7.92689H231.92V13.4644H232.713V15.8065ZM231.139 13.4644V8.63508H229.727C229.673 9.34327 229.499 10.1695 229.206 11.1137C228.916 12.058 228.591 12.8415 228.229 13.4644H231.139ZM233.767 7.92689H234.501V11.3526C234.501 11.5944 234.494 11.9144 234.479 12.3125C234.465 12.7107 234.451 12.9695 234.437 13.089H234.475L237.905 7.92689H238.78V14.1641H238.046V10.7724C238.046 10.4767 238.056 10.1325 238.076 9.74002C238.096 9.34469 238.11 9.08872 238.118 8.97211H238.08L234.642 14.1641H233.767V7.92689ZM245.243 14.1641H244.458V11.2545H241.258V14.1641H240.473V7.92689H241.258V10.5634H244.458V7.92689H245.243V14.1641ZM250.435 14.1641H246.949V7.92689H250.435V8.61802H247.734V10.5634H250.277V11.246H247.734V13.4729H250.435V14.1641ZM256.583 14.1641H255.798V11.2545H252.598V14.1641H251.813V7.92689H252.598V10.5634H255.798V7.92689H256.583V14.1641ZM258.298 7.92689H259.031V11.3526C259.031 11.5944 259.024 11.9144 259.01 12.3125C258.996 12.7107 258.982 12.9695 258.967 13.089H259.006L262.436 7.92689H263.31V14.1641H262.577V10.7724C262.577 10.4767 262.587 10.1325 262.606 9.74002C262.626 9.34469 262.641 9.08872 262.649 8.97211H262.611L259.172 14.1641H258.298V7.92689ZM268.489 14.1641H265.004V7.92689H268.489V8.61802H265.789V10.5634H268.332V11.246H265.789V13.4729H268.489V14.1641Z" fill="#BF0000"/>
</svg>
