<svg width="160" height="160" viewBox="0 0 160 160" fill="none" xmlns="http://www.w3.org/2000/svg">
<path d="M0 6C0 2.6863 2.68629 0 6 0H12V154C12 157.314 9.31371 160 6 160C2.68629 160 0 157.314 0 154V6Z" fill="#4D4D4D"/>
<path d="M35.6524 95.1914C35.6524 91.8777 38.3387 89.1914 41.6524 89.1914H47.6524V148H35.6524V95.1914Z" fill="#4D4D4D"/>
<path d="M15.5904 27.1006H27.5904V154C27.5904 157.314 24.9041 160 21.5904 160C18.2767 160 15.5904 157.314 15.5904 154V27.1006Z" fill="#4D4D4D"/>
<path d="M50.9471 110.486C50.9471 107.173 53.6334 104.486 56.9471 104.486H62.9471V144.411H56.9471C53.6334 144.411 50.9471 141.725 50.9471 138.411V110.486Z" fill="#4D4D4D"/>
<path d="M132.503 15.1006H138.503C141.817 15.1006 144.503 17.7869 144.503 21.1006V132.411H132.503V15.1006Z" fill="#4D4D4D"/>
<path d="M148 12H160V154C160 157.314 157.314 160 154 160H148V12Z" fill="#4D4D4D"/>
<path d="M148 148V160H41.6524C38.3387 160 35.6524 157.314 35.6524 154V148H148Z" fill="#4D4D4D"/>
<path d="M144.503 132.411V138.411C144.503 141.725 141.817 144.411 138.503 144.411H62.9471L62.9471 132.411H144.503Z" fill="#4D4D4D"/>
<path d="M83.9015 104.486V116.486H62.9471V104.486H83.9015Z" fill="#4D4D4D"/>
<path d="M83.9203 89.1914V101.191H47.6524V89.1914H83.9203Z" fill="#4D4D4D"/>
<path d="M154 0C157.314 0 160 2.68629 160 6V12L12 12L12 0H154Z" fill="#4D4D4D"/>
<path d="M132.503 15.1006V27.1006H15.5904L15.5904 21.1006C15.5904 17.7869 18.2767 15.1006 21.5904 15.1006L132.503 15.1006Z" fill="#4D4D4D"/>
<path d="M83.9203 33.375V45.375L27.5904 45.375V33.375L83.9203 33.375Z" fill="#4D4D4D"/>
<path d="M83.9203 48.4756V60.4756L27.5904 60.4756V48.4756L83.9203 48.4756Z" fill="#4D4D4D"/>
<path d="M84.9833 33.375H83.9203V45.375H84.6764C101.003 45.375 114.238 58.6104 114.238 74.9365C114.238 91.2627 101.003 104.497 84.6764 104.497H83.9203V116.486H84.9833C107.934 116.486 126.539 97.8809 126.539 74.9307C126.539 51.9805 107.934 33.375 84.9833 33.375Z" fill="#4D4D4D"/>
<path fill-rule="evenodd" clip-rule="evenodd" d="M83.9203 48.6006H84.5939C99.1388 48.6006 110.93 60.3916 110.93 74.9365C110.93 89.4814 99.1388 101.272 84.5939 101.272H83.9203V89.1992H84.2877C90.0791 89.1992 95.0699 85.7714 97.3417 80.834H98.9921L98.9921 68.834H97.3384C95.065 63.9 90.0763 60.4756 84.2877 60.4756H83.9203V48.6006ZM97.3384 68.834H62.3855C59.0717 68.834 56.3854 71.5203 56.3854 74.834C56.3854 78.1477 59.0717 80.834 62.3854 80.834H97.3417C98.1813 79.0092 98.6495 76.9782 98.6495 74.8379C98.6495 72.6945 98.1801 70.6608 97.3384 68.834Z" fill="#4D4D4D"/>
<path d="M98.9921 80.834L98.9921 68.834H97.3384C98.1801 70.6608 98.6495 72.6945 98.6495 74.8379C98.6495 76.9782 98.1813 79.0092 97.3417 80.834H98.9921Z" fill="#4D4D4D"/>
</svg>
