<svg width="160" height="160" fill="none" xmlns="http://www.w3.org/2000/svg"><path d="M0 6a6 6 0 0 1 6-6h6v154a6 6 0 1 1-12 0V6ZM35.652 95.191a6 6 0 0 1 6-6h6V148h-12V95.191ZM15.59 27.1h12V154a6 6 0 1 1-12 0V27.1ZM50.947 110.486a6 6 0 0 1 6-6h6v39.925h-6a6 6 0 0 1-6-6v-27.925ZM132.503 15.1h6a6 6 0 0 1 6 6v111.311h-12V15.101ZM148 12h12v142a6 6 0 0 1-6 6h-6V12ZM148 148v12H41.652a6 6 0 0 1-6-6v-6H148ZM144.503 132.411v6a6 6 0 0 1-6 6H62.947v-12h81.556ZM83.901 104.486v12H62.947v-12h20.954ZM83.92 89.191v12H47.652v-12H83.92ZM154 0a6 6 0 0 1 6 6v6H12V0h142ZM132.503 15.1v12H15.59v-6a6 6 0 0 1 6-6h110.913ZM83.92 33.375v12H27.59v-12h56.33ZM83.92 48.476v12H27.59v-12h56.33ZM84.983 33.375H83.92v12h.756c16.327 0 29.562 13.235 29.562 29.561 0 16.327-13.235 29.561-29.562 29.561h-.756v11.989h1.063c22.951 0 41.556-18.605 41.556-41.555s-18.605-41.556-41.556-41.556Z" fill="#4D4D4D"/><path fill-rule="evenodd" clip-rule="evenodd" d="M83.92 48.6h.674c14.545 0 26.336 11.792 26.336 26.336 0 14.545-11.791 26.336-26.336 26.336h-.674V89.199h.368c5.791 0 10.782-3.428 13.054-8.365h1.65v-12h-1.654c-2.273-4.934-7.262-8.358-13.05-8.358h-.368V48.6Zm13.418 20.234H62.386a6 6 0 1 0 0 12h34.956a14.308 14.308 0 0 0 1.308-5.996c0-2.143-.47-4.177-1.312-6.004Z" fill="#4D4D4D"/><path d="M98.992 80.834v-12h-1.654a14.31 14.31 0 0 1 1.312 6.004c0 2.14-.469 4.171-1.308 5.996h1.65Z" fill="#4D4D4D"/></svg>