<?xml version="1.0" encoding="utf-8"?><svg viewBox="0 0 271 200" xmlns="http://www.w3.org/2000/svg" xmlns:xlink="http://www.w3.org/1999/xlink"><style>:root>svg{display:none}:root>svg:target{display:block}</style><svg viewBox="0 0 168 168" fill="none" id="arrow-top-right" xmlns="http://www.w3.org/2000/svg"><path d="M8 160 158 10ZM158 10H58Zm0 0v99.999Z"/><path d="M158 10h10V0h-10v10ZM15.071 167.071l150-150L150.929 2.93l-150 150 14.142 14.142ZM158 0H58v20h100V0Zm-10 10v99.999h20V10h-20Z" fill="currentColor"/></svg><svg fill="none" viewBox="0 0 16 22" id="arrow-up" xmlns="http://www.w3.org/2000/svg"><path d="M9.031.585a1.444 1.444 0 0 0-.477-.303 1.358 1.358 0 0 0-1.097 0c-.178.069-.34.172-.477.303L1.202 6.363a1.45 1.45 0 0 0 2.051 2.051l3.308-3.322v15.297a1.444 1.444 0 1 0 2.889 0V5.092l3.308 3.322a1.45 1.45 0 0 0 2.05-2.051L9.032.585Z" fill="currentColor"/></svg><svg fill="none" viewBox="0 0 24 24" id="bracket-gt" xmlns="http://www.w3.org/2000/svg"><path d="M8.4 1.2 6.72 3l8.88 9-8.88 9 1.68 1.8L19.2 12 8.4 1.2Z" fill="currentColor"/></svg><svg fill="none" viewBox="0 0 24 24" id="bracket-lt" xmlns="http://www.w3.org/2000/svg"><path d="m15.6 22.8 1.68-1.8-8.88-9 8.88-9-1.68-1.8L4.8 12l10.8 10.8Z" fill="currentColor"/></svg><svg viewBox="0 0 14 14" id="cross" xmlns="http://www.w3.org/2000/svg"><path fill-rule="evenodd" clip-rule="evenodd" d="m8.414 7 5.293-5.293A.999.999 0 1 0 12.293.293L7 5.586 1.707.293A.999.999 0 1 0 .293 1.707L5.586 7 .293 12.293a.999.999 0 1 0 1.414 1.414L7 8.414l5.293 5.293a.997.997 0 0 0 1.414 0 .999.999 0 0 0 0-1.414L8.414 7Z" fill="currentColor"/></svg><svg fill="none" viewBox="0 0 200 200" id="icon-doc" xmlns="http://www.w3.org/2000/svg"><g clip-path="url(#fa)"><path fill-rule="evenodd" clip-rule="evenodd" d="M175 56.25V175c0 6.63-2.634 12.989-7.322 17.678A25.004 25.004 0 0 1 150 200v-12.5a12.501 12.501 0 0 0 12.5-12.5V56.25h-25a18.749 18.749 0 0 1-18.75-18.75v-25H50A12.5 12.5 0 0 0 37.5 25v112.5H25V25A25 25 0 0 1 50 0h68.75L175 56.25ZM77.013 170.825v6.525c0 3.2-.488 5.871-1.463 8.013a10.754 10.754 0 0 1-4.025 4.837 11.253 11.253 0 0 1-5.863 1.575 11.245 11.245 0 0 1-5.887-1.575 10.875 10.875 0 0 1-4-4.825 19.376 19.376 0 0 1-1.462-8.025v-6.525c0-3.217.487-5.888 1.462-8.013a10.876 10.876 0 0 1 4-4.837 10.877 10.877 0 0 1 5.887-1.613c2.2 0 4.155.542 5.863 1.625a10.753 10.753 0 0 1 4.025 4.825c.975 2.125 1.463 4.796 1.463 8.013Zm10.037 6.488V170.9c0-4.708-.854-8.758-2.563-12.15a18.249 18.249 0 0 0-7.362-7.875c-3.175-1.833-6.996-2.75-11.463-2.75-4.441 0-8.275.917-11.5 2.75a18 18 0 0 0-7.362 7.837c-1.7 3.384-2.554 7.446-2.563 12.188v6.413c0 4.691.855 8.745 2.563 12.162 1.708 3.383 4.167 5.996 7.375 7.837 3.217 1.8 7.05 2.7 11.5 2.7 4.458 0 8.275-.9 11.45-2.7 3.192-1.833 5.65-4.445 7.375-7.837 1.7-3.417 2.55-7.471 2.55-12.162ZM0 149.075v50h18.238c5.024 0 9.187-.992 12.487-2.975a18.126 18.126 0 0 0 7.438-8.613c1.633-3.75 2.45-8.266 2.45-13.55 0-5.25-.817-9.729-2.45-13.437a17.875 17.875 0 0 0-7.375-8.5c-3.292-1.95-7.476-2.925-12.55-2.925H0Zm9.887 8.063h7.038c3.092 0 5.63.633 7.613 1.899a11.252 11.252 0 0 1 4.424 5.676c.984 2.516 1.476 5.654 1.476 9.412a28.748 28.748 0 0 1-.85 7.4 13.752 13.752 0 0 1-2.45 5.275 9.998 9.998 0 0 1-4.176 3.15 16.256 16.256 0 0 1-6.037 1.025h-7.05v-33.85l.012.013Zm92.776 6.037a21.23 21.23 0 0 0-1.288 7.913v6.187c0 3.075.429 5.688 1.288 7.838a10.374 10.374 0 0 0 3.724 4.912 10.636 10.636 0 0 0 5.976 1.638 11.255 11.255 0 0 0 5.012-1.101 8.746 8.746 0 0 0 3.413-3.1 10.003 10.003 0 0 0 1.462-4.549h9.563v.949a15.89 15.89 0 0 1-2.825 8.426c-1.709 2.416-4 4.308-6.875 5.674a22.482 22.482 0 0 1-9.826 2.05c-4.5 0-8.308-.9-11.424-2.7a17.491 17.491 0 0 1-7.138-7.837c-1.617-3.4-2.425-7.467-2.425-12.2v-6.225c0-4.733.82-8.808 2.463-12.225 1.624-3.425 4.004-6.063 7.137-7.913 3.15-1.858 6.946-2.787 11.387-2.787 2.734 0 5.263.404 7.588 1.212 2.333.775 4.371 1.909 6.113 3.4a16.627 16.627 0 0 1 5.825 12.05v.913h-9.563a10.634 10.634 0 0 0-1.5-4.75 8.758 8.758 0 0 0-3.412-3.263 10.007 10.007 0 0 0-4.975-1.212 9.997 9.997 0 0 0-5.938 1.725 10.87 10.87 0 0 0-3.762 4.975Z" fill="#000"/></g><defs><clipPath id="fa"><path fill="#fff" d="M0 0h200v200H0z"/></clipPath></defs></svg><svg fill="none" viewBox="0 0 200 200" id="icon-file" xmlns="http://www.w3.org/2000/svg"><path d="M175 175V56.25L118.75 0H50a25 25 0 0 0-25 25v150a25.003 25.003 0 0 0 25 25h100c6.63 0 12.989-2.634 17.678-7.322A25.004 25.004 0 0 0 175 175ZM118.75 37.5a18.748 18.748 0 0 0 18.75 18.75h25V175a12.501 12.501 0 0 1-12.5 12.5H50A12.5 12.5 0 0 1 37.5 175V25A12.5 12.5 0 0 1 50 12.5h68.75v25Z" fill="#000"/></svg><svg fill="none" viewBox="0 0 200 200" id="icon-pdf" xmlns="http://www.w3.org/2000/svg"><path fill-rule="evenodd" clip-rule="evenodd" d="M175 56.25V175c0 6.63-2.634 12.989-7.322 17.678A25.004 25.004 0 0 1 150 200h-12.5v-12.5H150a12.501 12.501 0 0 0 12.5-12.5V56.25h-25a18.749 18.749 0 0 1-18.75-18.75v-25H50A12.5 12.5 0 0 0 37.5 25v112.5H25V25A25 25 0 0 1 50 0h68.75L175 56.25ZM20 148.125H0v49.987h9.887v-16.775h10.038c3.583 0 6.633-.72 9.15-2.162 2.542-1.458 4.47-3.433 5.787-5.925a17.5 17.5 0 0 0 2.013-8.463c0-3.125-.658-5.945-1.975-8.462a14.995 14.995 0 0 0-5.75-5.962c-2.5-1.5-5.55-2.246-9.15-2.238Zm6.813 16.662a9.997 9.997 0 0 1-1.063 4.75 7.126 7.126 0 0 1-2.975 3.013 9.998 9.998 0 0 1-4.688 1.025H9.85V156h8.25c2.725 0 4.858.754 6.4 2.263 1.542 1.525 2.313 3.699 2.313 6.524Zm15.212-16.662v49.987h18.25c5.017 0 9.175-.987 12.475-2.962a18.127 18.127 0 0 0 7.438-8.612c1.633-3.75 2.45-8.267 2.45-13.551 0-5.25-.817-9.729-2.45-13.437a17.871 17.871 0 0 0-7.363-8.5c-3.3-1.95-7.487-2.925-12.563-2.925H42.026Zm9.888 8.062h7.037c3.092 0 5.63.634 7.612 1.901a11.247 11.247 0 0 1 4.425 5.674c.984 2.517 1.476 5.655 1.476 9.413a28.748 28.748 0 0 1-.85 7.4 13.752 13.752 0 0 1-2.45 5.275 9.998 9.998 0 0 1-4.175 3.15 16.256 16.256 0 0 1-6.038 1.025h-7.038v-33.838ZM98.7 178.225v19.887h-9.875v-49.987h31.85v8.163H98.7v13.962h20.075v7.975H98.7Z" fill="#000"/></svg><svg fill="none" viewBox="0 0 271 60" id="logo" xmlns="http://www.w3.org/2000/svg"><path fill-rule="evenodd" clip-rule="evenodd" d="M34.176.149c7.804.96 15.73 5.9 20.147 12.552 4.067 6.093 5.935 12.97 5.36 19.605-.106 1.379-.245 2.776-.298 3.125l-.104.628 7.402.105c8.467.122 8.886.105 9.06-.245.07-.122.664-2.13 1.31-4.434.645-2.304 1.326-4.539 1.536-4.975.332-.716.419-.786.978-.786.837 0 .942.297 1.588 4.138.28 1.745.838 5.045 1.222 7.297s.856 5.08 1.048 6.285c.454 2.6.454 2.67.663 2.548.21-.14.489-1.745.803-4.643.14-1.397.42-3.719.611-5.15.192-1.45.629-4.853.96-7.594a698.6 698.6 0 0 1 .873-6.896c.14-1.065.42-3.422.629-5.237.192-1.834.54-4.61.768-6.198.244-1.589.436-3.125.436-3.422 0-.698.35-.977 1.065-.907.471.035.594.157.716.576.314 1.152 1.746 13.46 2.322 19.901.07.664.349 3.09.628 5.36.28 2.287.507 4.19.507 4.242 0 .053 4.015.087 8.92.087h8.939l-.105-2.67c-.052-1.45-.227-3.195-.367-3.876-.314-1.397-1.03-2.968-1.431-3.125-.821-.314-1.659 1.24-2.147 3.963-.175 1.03-.385 1.938-.437 2.007-.175.158-1.658-.663-1.85-1.012-.315-.576.488-3.98 1.326-5.587.908-1.763 1.659-2.217 3.457-2.13.751.053 2.008 1.432 2.496 2.741 2.165 5.901 1.345 17.877-1.553 22.748-.803 1.327-1.851 2.007-2.986 1.903-1.047-.088-1.658-.646-2.287-2.043-.453-1.012-1.012-3.247-1.239-5.01l-.122-.908.908-.89c.488-.472.96-.873 1.047-.873.192 0 .297.61.436 2.461.175 2.252.943 4.522 1.537 4.522.593 0 1.501-1.624 2.095-3.666.244-.856.593-2.828.907-5.29l.105-.82-4.329-.035a441.133 441.133 0 0 0-9.62 0c-4.12.035-5.307-.018-5.359-.175-.035-.122-.157-.943-.244-1.798a642.39 642.39 0 0 0-1.432-12.186c-.367-3.037-.68-5.795-.68-6.092 0-.35-.07-.49-.158-.384-.175.157-.698 3.561-1.047 6.703a364.52 364.52 0 0 1-.629 4.976c-.244 1.815-.524 4.067-.61 4.975l-.01.083c-.109.94-.328 2.841-.515 4.282-.506 4.05-.785 6.407-1.396 11.696-.314 2.636-.594 4.906-.629 5.028-.052.157-.366.21-1.065.175l-1.012-.053-.21-1.309c-.122-.716-.419-2.444-.663-3.84a421.9 421.9 0 0 1-1.135-6.81c-1.082-6.598-1.396-8.361-1.763-9.636-.175-.628-.332-1.274-.332-1.431 0-.157-.07-.28-.157-.28-.07 0-.262.577-.419 1.257-.436 2.078-.995 4.05-1.257 4.4-.227.314-.576.314-7.262.296-3.876-.017-7.088-.07-7.175-.122-.07-.052-1.065-.035-2.2.035l-2.077.122-.227.856c-.314 1.292-2.724 5.918-4.19 8.083-2.689 3.98-7.385 7.96-11.61 9.828-2.374 1.048-5.429 2.043-7.332 2.392-2.147.402-6.79.541-8.938.262-5.01-.611-10.195-2.724-14.455-5.848-1.85-1.345-4.8-4.382-6.25-6.407-1.414-1.956-3.404-5.901-4.137-8.136C.274 35.57-.233 31.45.099 27.767c.524-5.779 2.025-10.16 5.045-14.717C9.58 6.364 17.54 1.283 25.325.166c1.537-.21 7.106-.227 8.851-.017ZM14.903 7.254c3.527-2.322 7.594-3.876 11.418-4.382a33.955 33.955 0 0 1 3.142-.262c1.78-.017 5.36.42 7.07.856 7.734 2.042 14.106 7.28 17.755 14.577 1.92 3.823 2.618 6.843 2.636 11.435.017 1.693-.07 3.63-.192 4.364-.297 1.816-1.554 6.145-2.13 7.42-2.112 4.556-6.337 9.27-10.667 11.906-1.833 1.134-1.798 1.152-2.112-.42l-.026-.123c-.167-.8-.496-2.37-.777-3.595-.28-1.292-.733-3.544-.995-4.975-.245-1.45-.506-2.828-.559-3.108-.07-.419-.035-.471.42-.471.488 0 .505.052.697 1.152.42 2.41 1.869 3.77 4.138 3.876 1.135.052 1.31.017 2.043-.454.453-.297 1.012-.786 1.256-1.1.507-.698.996-2.043.996-2.776v-.523h2.653c2.217 0 2.689-.053 2.968-.297.175-.157.314-.402.314-.559 0-.244-.035-.244-.174-.017-.105.174-.175-2.148-.175-6.74v-7l-1.606-.122c-.873-.052-4.853-.105-8.851-.122-3.998-.018-7.455-.07-7.699-.14-.35-.087-.454-.262-.541-.803a17 17 0 0 0-.245-1.361l-.122-.646h1.92c2.06 0 2.113-.018 2.043-.96-.035-.297-.052-.612-.07-.734-.017-.157-.646-.227-2.234-.262l-2.217-.052-.14-.786c-.07-.436-.157-.995-.21-1.274l-.087-.471h9.235v-1.868l-2.13-.105c-1.152-.07-3.352-.122-4.87-.122h-2.759l-.104-.611c-.053-.332-.123-.873-.175-1.187l-.087-.594 3.16-.105c1.745-.07 5.167-.122 7.611-.122h4.417v-1.868l-5.621-.105a490.71 490.71 0 0 0-7.944-.122c-2.252 0-2.322-.017-2.391-.401-.053-.21-.28-1.257-.524-2.305a128.948 128.948 0 0 1-.646-3.02c-.28-1.484-.489-1.676-1.71-1.536-.525.07-.996.14-1.03.174-.053.053-1.153 4.749-1.555 6.6l-.087.488-1.693.018c-.925.017-4.574.052-8.118.087-4.975.052-6.477.105-6.6.28-.069.121-.139.523-.139.872 0 .629.018.646.75.733.402.053 3.929.122 7.84.14 3.892.035 7.14.105 7.192.157.105.105-.314 2.2-.454 2.357-.035.035-2.252.07-4.923.07-2.671.017-4.958.07-5.098.122-.157.052-.244.35-.244.75 0 1.293-.314 1.223 4.923 1.223H25.5l-.122.646a10.83 10.83 0 0 0-.105 1.222v.576h-4.888v2.095h2.095c1.571 0 2.095.052 2.095.21a60.725 60.725 0 0 1-.576 2.565l-.559 2.322-2.025-.017-2.008-.035-.506.925a155.17 155.17 0 0 1-1.938 3.562l-.419.698-2.391.227c-3.684.314-7.455.733-7.595.82-.07.053-.14 1.152-.14 2.444v2.34H6c-.75 0-.978.174-.978.768 0 .855.245.977 2.025.977h1.606l.123.646c.157.908.803 2.287 1.396 2.986 1.117 1.326 2.95 1.64 4.54.768 1.169-.646 1.99-1.973 2.426-3.928.14-.611.297-.594 1.012.122.437.437.82.629 1.415.716.453.07.82.14.82.157 0 .367-2.758 11.819-2.863 11.941-.14.14-2.514-1.327-4.207-2.601C11.83 50.34 9.509 48 8.235 46.324c-.769-.995-2.532-3.788-3.073-4.888-.524-1.03-1.571-4.47-1.973-6.46-.838-4.19-.489-9.304.89-13.529.664-2.008 2.567-5.674 3.859-7.42 1.745-2.356 4.888-5.411 6.965-6.773Zm15.398 8.956h-1.466l.523-2.619h1.606l.315.995c.174.559.349 1.152.384 1.31.087.279-.053.314-1.362.314Zm-2.549 4.451c-.017-.017.122-.558.314-1.187l.367-1.17h3.44l.191.56c.105.313.227.89.297 1.274l.105.715-2.34-.07c-1.274-.034-2.339-.087-2.374-.122Zm-.628 3.265c.052-.454.14-.873.192-.96.035-.07 1.344-.122 2.915-.122h2.846l.174 1.082c.105.611.245 1.274.315 1.484l.122.401-3.247.035-3.247.053-.053 5.551c-.07 5.866-.07 5.866-.855 5.884-.297 0-.315-.315-.315-4.068 0-4.242.262-6.983.769-7.996.14-.28.314-.89.384-1.344Zm1.379 17.423c.017-.332.052-.664.052-.75.035-.14.332-.158.873-.018.28.087.384.244.384.61 0 .262.105.542.227.63.227.156.105.156 4.19.191h.014c2.85.035 2.901.036 2.901.42 0 .209.35 1.972.786 3.91.908 4.032 1.658 7.943 1.658 8.571 0 .332-.174.49-.82.769-1.763.75-6.267 1.553-8.746 1.553-3.335 0-9.2-1.257-9.707-2.077-.157-.245 1.205-6.861 2.549-12.273l.192-.838 2.723-.035 2.706-.052.018-.611Z" fill="#BF0000"/><path d="M119.545 24.537c0 .28-.192 2.81-.437 5.639a497.918 497.918 0 0 0-.436 5.272c0 .087.855.14 1.903.14h1.885l.122-1.624.021-.265c.077-.966.219-2.738.346-4.134.139-1.536.297-3.404.349-4.155l.122-1.344h2.235l-.088 1.257c-.069.698-.209 2.444-.349 3.893a208.344 208.344 0 0 0-.436 5.586c-.105 1.624-.227 3.09-.262 3.23-.035.14-.192 2.06-.349 4.277a480.32 480.32 0 0 1-.489 6.197l-.227 2.183-.943-.035c-.506-.035-.995-.105-1.065-.175-.069-.087-.069-1.117.018-2.322.314-4.347.698-9.182.785-9.863l.088-.699-3.754.035-.209 2.078c-.122 1.152-.367 4.032-.559 6.407-.192 2.391-.366 4.364-.401 4.399-.105.105-1.886.157-1.99.052-.193-.21.488-10.177 1.239-17.597.14-1.396.349-3.963.471-5.726l.21-3.177h1.1c1.082 0 1.1 0 1.1.471Zm15.642-.384c.069.14.035.716-.035 1.274l-.157.995-5.273.105-.279 3.177c-.157 1.746-.349 3.824-.401 4.61l-.123 1.448 1.903.018c1.816 0 3.195.087 3.3.192.035.035.017.419-.035.873l-.105.838h-5.15l-.192 1.693c-.105.943-.279 2.846-.367 4.242a258.09 258.09 0 0 1-.279 3.527l-.105 1.012h2.881c1.588 0 2.933.053 2.968.123.087.14-.157 2.13-.262 2.234-.122.122-7.804.157-7.926.035-.07-.07 0-1.71.157-3.666.489-5.726.96-11.784 1.065-13.565.14-1.99.803-8.903.89-9.217.053-.157.961-.21 3.754-.21 3.125 0 3.701.035 3.771.262Z" fill="#BF0000"/><path fill-rule="evenodd" clip-rule="evenodd" d="M142.711 24.328c.454.296.908 1.117 1.379 2.53.279.787.332 1.45.314 3.754-.017 3.544-.454 6.11-1.361 7.926-.838 1.641-1.153 1.833-3.317 1.938l-1.764.087-.279 3.492c-.175 1.92-.349 4.172-.419 5.01l-.122 1.536h-1.117c-.611 0-1.118-.052-1.118-.14 0-.191.489-6.459.699-8.85.261-3.125.872-10.51.96-11.697.279-3.649.471-5.621.541-5.83.105-.333 5.028-.123 5.604.244Zm-4.434 13.582c-.14-.367.593-9.637.855-10.667.175-.698.21-.733.855-.733 1.764 0 2.095.61 2.218 4.207.122 3.963-.542 6.721-1.781 7.227-.873.367-2.008.35-2.147-.034Z" fill="#BF0000"/><path d="M153.604 24.013c.227.053.28.227.21.89-.157 1.66.087 1.52-2.654 1.52h-2.426l-.192 1.658c-.21 1.868-.489 4.888-.629 6.721-.227 3.003-.82 9.654-1.065 11.924-.139 1.361-.209 2.566-.157 2.653.07.105.07.402 0 .681-.087.454-.192.506-1.082.611-.541.07-1.013.07-1.065.018-.052-.035.035-1.746.209-3.789.158-2.042.437-6.005.646-8.78.192-2.794.472-6.163.594-7.508.122-1.344.297-3.317.349-4.364.07-1.065.14-2.025.192-2.147.052-.175.786-.227 3.422-.192 1.85.017 3.491.052 3.648.104Z" fill="#BF0000"/><path fill-rule="evenodd" clip-rule="evenodd" d="M160.081 23.716c.541 0 1.641 1.188 2.13 2.27.262.576.681 1.816.925 2.758.821 3.178.716 10.51-.227 14.525-1.03 4.364-1.955 6.25-3.613 7.385-4.277 2.915-6.914-7.385-4.819-18.82.664-3.578 1.676-6.284 2.741-7.297.594-.576 1.711-1.03 2.217-.908a3 3 0 0 0 .646.087Zm-3.264 7.682c.488-2.392.925-3.44 1.972-4.853.227-.297.489-.559.576-.559.193 0 .821.925 1.223 1.833.453 1.013 1.03 4.958 1.03 6.983 0 2.27-.611 7.245-1.135 9.165-.716 2.636-1.973 4.574-2.759 4.26-.349-.122-1.099-1.64-1.326-2.688-.716-3.387-.542-9.532.419-14.141Z" fill="#BF0000"/><path d="M171.691 24.118c.663.437 1.466 1.868 1.868 3.265.331 1.222.68 4.12.523 4.573-.122.385-.733.664-1.484.664-.488 0-.506-.035-.506-.838 0-2.008-1.047-5.447-1.658-5.447-.734 0-1.606 1.659-2.27 4.26-1.012 3.963-1.327 11.05-.663 14.245.384 1.781.995 3.282 1.414 3.44.751.296 2.095-2.933 2.461-5.866.088-.699.192-1.31.245-1.345.122-.14 1.588.56 1.85.873.227.262.192.541-.157 2.165-1.012 4.609-2.217 6.669-4.155 7.088-.768.175-1.815-.437-2.479-1.467-.89-1.396-1.588-4.643-1.833-8.554-.122-2.025.262-7.384.716-9.811.751-4.085 2.357-7.193 3.945-7.681.611-.175 1.554.017 2.183.436Zm12.604-.088c.402.088.419.105.314 1.502-.331 4.557-.663 8.781-.82 10.23-.21 1.903-.611 7.123-.891 11.435-.087 1.624-.209 3.073-.244 3.177-.052.157-.454.227-1.152.227h-1.083l.123-2.06c.069-1.117.227-3.177.366-4.574.122-1.396.28-3.247.349-4.102.053-.873.245-3.457.437-5.761.174-2.305.384-4.958.436-5.9l.123-1.694h-1.851c-1.013 0-1.851.052-1.851.104 0 .14-.628 7.298-.96 10.807-.139 1.536-.331 4.12-.436 5.76-.192 2.916-.646 7.42-.768 7.543-.035.034-.507.017-1.048-.053l-.977-.122v-.803c0-.786.174-2.81.873-10.23.192-2.025.436-5.01.523-6.634.088-1.641.28-4.103.437-5.5.139-1.396.262-2.758.262-3.02v-.506l3.718.053c2.025.035 3.893.087 4.12.122Zm9.986 1.083c-.018.611-.087 1.187-.122 1.257-.053.087-1.31.14-2.794.14-2.444 0-2.688.035-2.688.296 0 .507-.506 7.036-.611 8.031l-.105.925h5.255v.42c0 .226-.052.663-.105.96l-.105.54h-2.601c-2.479 0-2.601.018-2.601.35 0 .349-.611 7.769-.768 9.287l-.087.838h5.97l-.122.803c-.052.454-.105.995-.105 1.222v.42h-8.03v-1.24c0-.681.157-3.02.349-5.185.454-5.36.995-11.644 1.309-15.66.245-3.02.384-4.207.524-4.451.035-.053 1.728-.088 3.771-.088h3.718l-.052 1.135Zm3.614.647c-.123 1.884-.559 6.65-.838 9.391-.088.96-.332 3.98-.524 6.721a448.76 448.76 0 0 1-.419 5.622l-.07.663h1.903c1.414 0 1.903-.052 1.903-.227 0-.104.157-2.095.349-4.399.192-2.304.506-6.11.698-8.467.192-2.357.472-5.604.611-7.245.14-1.623.262-3.125.262-3.352 0-.384.07-.401 1.135-.401h1.152l-.105.995a160.35 160.35 0 0 0-.261 3.456 223.883 223.883 0 0 1-.35 4.016c-.279 2.583-1.134 12.5-1.274 15.013-.035.454.035.524.454.576.262.035.471.105.471.175 0 .07-.087.663-.192 1.344-.105.663-.279 2.793-.384 4.714l-.209 3.491-.908.053c-1.065.07-1.03.192-.768-2.235.087-.82.227-2.287.279-3.282l.122-1.78h-7.245l.122-2.235c.123-2.55.681-9.358 1.065-13.303.14-1.484.35-3.806.437-5.15.192-2.758.314-4.242.454-5.185l.104-.646.978-.052c.541-.035 1.03-.035 1.082-.018.053.018.035.803-.034 1.746Zm15.904-1.712c.174.122.192.384.087 1.257l-.157 1.117h-2.794l-.122 1.223c-.227 2.304-1.309 15.345-1.449 17.37-.052.716-.174 2.27-.297 3.439l-.192 2.147h-1.117c-.995 0-1.117-.035-1.03-.314.053-.157.175-1.676.279-3.352.105-1.676.297-4.312.437-5.848.646-7.14 1.135-14.385 1.012-14.612-.034-.07-.663-.088-1.361-.018l-1.31.105v-2.67h3.894c2.129 0 3.98.069 4.12.156Zm3.334 2.479V27c0 .261-.157 2.304-.349 4.556-.192 2.252-.314 4.12-.28 4.172.035.035 1.153.088 2.497.123 1.327.035 2.479.07 2.549.087.07 0 .122.367.087.82l-.052.838-5.273.105-.122 1.868a130.08 130.08 0 0 1-.384 4.225c-.122 1.292-.244 2.81-.244 3.352v1.012h2.776c1.536 0 2.828.07 2.88.157.052.088.052.629 0 1.222l-.122 1.065h-3.981c-3.09 0-3.997-.052-3.997-.227.017-.576.541-7.75.681-9.2.104-.908.226-2.374.279-3.23.052-.872.209-2.828.349-4.364.14-1.536.332-4.294.454-6.145.174-2.81.262-3.37.489-3.44.157-.034 1.833-.052 3.753-.034l3.457.017v2.444l-5.447.105Zm8.799-2.077c.029.189.203 1.153.412 2.306l.129.714c.646 3.7 1.012 5.5 1.135 5.5.052 0 .331-.734.628-1.624.314-.873 1.013-2.881 1.554-4.452l1.012-2.828h1.1c.96 0 1.117.052 1.117.314 0 .175-.977 3.247-2.182 6.843-1.204 3.597-2.182 6.739-2.182 6.983 0 .245.524 3.09 1.17 6.32.628 3.247 1.117 5.936 1.065 6.005-.053.053-.542.14-1.083.193-.89.087-.977.07-1.117-.315-.227-.576-1.275-5.377-1.519-6.965-.122-.716-.262-1.187-.314-1.048-.07.14-.698 1.99-1.432 4.103-.715 2.112-1.431 3.928-1.588 4.05-.262.192-1.921.14-2.165-.07-.035-.035.052-.524.209-1.065.262-.908 3.23-9.55 3.893-11.382l.297-.786-1.239-6.197c-.699-3.404-1.292-6.372-1.362-6.6-.087-.366-.052-.383 1.152-.383 1.135 0 1.24.035 1.31.384Zm10.404-.262c0 .087-.192 2.619-.436 5.639a613.13 613.13 0 0 0-.437 5.621c0 .087.873.14 1.921.14h1.92v-.943c0-.506.122-2.095.262-3.492.157-1.414.332-3.578.402-4.783l.122-2.217 1.204-.052c1.048-.053 1.187-.018 1.083.227-.053.157-.192 1.606-.28 3.194-.104 1.606-.209 3.073-.261 3.282-.035.192-.158 1.816-.262 3.58-.105 1.762-.262 3.84-.349 4.608-.105.768-.245 2.619-.35 4.102-.192 3.003-.506 6.687-.628 7.298-.087.419-.541.489-1.641.262l-.576-.105.122-1.24c.227-2.636.82-11.504.768-11.54-.035-.034-.873-.086-1.885-.104l-1.816-.052-.052 1.047a223.73 223.73 0 0 1-.315 3.91c-.209 2.427-.611 7.473-.611 7.892 0 .087-.506.14-1.134.14-.96 0-1.135-.053-1.135-.315 0-.384.471-5.604.698-7.664.088-.89.297-3.439.437-5.674.471-7.227.611-8.92.803-10.928l.209-1.955h1.118c.593 0 1.099.052 1.099.122Zm9.707 1.222c-.053.75-.175 2.374-.279 3.631-.105 1.24-.297 3.282-.437 4.54-.14 6.677-1.135 9.426.244 5.219.472-1.85 4.208-13.687 4.557-14.385.087-.175.454-.28 1.135-.314l.995-.053-.105 1.1c-.052.611-.14 1.728-.192 2.497-.279 4.154-.821 10.963-1.047 13.093a190.48 190.48 0 0 0-.454 5.063c-.088 1.431-.227 3.09-.297 3.666l-.122 1.047-.873.122c-.472.07-.926.07-1.013-.017-.07-.07-.052-1.222.053-2.566.261-3.457.855-10.318.977-11.243l.105-.786.336-3.055c-.332 1.152-3.286 10.37-4.037 12.692-.768 2.322-1.397 4.347-1.397 4.504 0 .384-.698.593-1.553.489-.856-.123-.838.279-.384-4.662.192-2.025.436-4.905.523-6.389.472-6.791 1.118-14.123 1.344-15.153.07-.35.175-.384 1.065-.384h.978l-.122 1.344Zm10.37-.96c-.018 1.117-.542 8.24-.699 9.375-.104.733-.179 1.496-.196 1.654-.017.157.004.283.109.318.349.105.943-1.431 1.484-3.875.838-3.841 1.205-5.238 1.693-6.32.367-.82.559-1.03 1.118-1.257.384-.157.89-.28 1.152-.28.436 0 .436.036.349.804-.035.436-.244 1.03-.454 1.292-.401.576-.873 2.2-1.414 4.888-.611 3.16-1.222 5.115-1.676 5.534l-.436.401.349.472c.349.506.873 3.578 1.239 7.384a80.04 80.04 0 0 0 .349 2.88c.088.577.175 1.467.175 1.956v.925h-2.077l-.088-.75c-.489-3.806-.628-5.133-.715-6.495-.105-1.396-.738-4.56-.895-4.735-.035-.035-.253.231-.393.371-.196.415-.319 1.798-.545 5.325-.105 1.675-.262 3.718-.35 4.539-.104.82-.174 1.536-.174 1.606 0 .087-.524.14-1.152.14h-1.153l.105-.926c.052-.489.227-2.723.367-4.923.157-2.217.349-4.574.436-5.237.087-.681.192-1.816.262-2.532.052-.715.21-2.531.349-4.015.14-1.484.332-3.998.437-5.586.104-1.589.227-2.986.261-3.108.053-.14.437-.21 1.135-.21.978 0 1.048.036 1.048.385Z" fill="#BF0000"/><path fill-rule="evenodd" clip-rule="evenodd" d="M268.685 25.41c.053.75.227 3.718.384 6.599.14 2.88.385 7.315.542 9.864.139 2.548.314 5.551.366 6.686l.105 2.06-1.885-.105-.123-1.536c-.052-.838-.157-2.41-.209-3.492l-.087-1.955-1.833-.052c-2.113-.079-1.802-.164-1.921.349-.052.227-.244 1.152-.436 2.06-.314 1.501-.891 4.469-.891 4.644 0 .034-.488.07-1.064.07h-1.083l.105-1.135c.052-.611.454-2.636.89-4.487.699-3.02 1.955-8.659 2.636-11.801.14-.646.611-2.741 1.048-4.644.436-1.903.785-3.649.785-3.858 0-.559.123-.611 1.397-.611h1.17l.104 1.344Zm-3.299 12.01c.559-2.688 1.239-5.725 1.431-6.354.053-.14.105-.21.14-.174.035.035.157 2.147.262 4.696.122 2.549.244 4.835.297 5.097l.105.49h-1.519c-1.484 0-1.519 0-1.432-.402.053-.21.367-1.729.716-3.352Z" fill="#BF0000"/><path d="M110.862 14.164h-.776V8.618h-3.119v5.546h-.785V7.927h4.68v6.237Zm5.704-4.403c0 .637-.217 1.127-.653 1.468-.435.338-1.048.508-1.838.508h-.717v2.427h-.785V7.927h1.651c1.561 0 2.342.611 2.342 1.834Zm-3.208 1.302h.627c.62 0 1.07-.1 1.348-.3.279-.201.418-.524.418-.968 0-.4-.129-.7-.388-.9-.259-.199-.663-.298-1.211-.298h-.794v2.466Zm9.949-.026c0 .998-.253 1.783-.76 2.355-.503.572-1.208.857-2.116.857-.918 0-1.629-.28-2.133-.84-.5-.563-.751-1.357-.751-2.38 0-1.016.249-1.802.747-2.36.501-.56 1.216-.84 2.146-.84.904 0 1.608.284 2.112.853.503.566.755 1.351.755 2.355Zm-4.932 0c0 .825.175 1.453.525 1.886.35.432.86.648 1.531.648.669 0 1.176-.213 1.523-.64.347-.426.521-1.058.521-1.894 0-.833-.172-1.46-.516-1.881-.344-.424-.851-.636-1.519-.636-.677 0-1.19.215-1.54.644-.35.427-.525 1.051-.525 1.873Zm6.323-3.11h.733v3.426a28.617 28.617 0 0 1-.064 1.736h.039l3.43-5.162h.874v6.237h-.733v-3.392c0-.295.009-.64.029-1.032.02-.395.035-.651.043-.768h-.038l-3.439 5.192h-.874V7.927Zm10.392 1.459c0 .404-.129.735-.388.994-.259.256-.622.42-1.088.49v.035c.529.07.928.234 1.199.49.273.256.409.59.409 1.003 0 .583-.22 1.038-.661 1.365-.441.324-1.059.486-1.856.486-.748 0-1.354-.112-1.817-.337v-.716a4.406 4.406 0 0 0 1.809.41c.563 0 .987-.105 1.271-.312.287-.208.431-.507.431-.896a.923.923 0 0 0-.482-.845c-.322-.193-.801-.29-1.438-.29h-.892v-.657h.845c.617 0 1.078-.102 1.382-.307.308-.208.461-.486.461-.836a.848.848 0 0 0-.341-.713c-.225-.176-.529-.264-.913-.264-.324 0-.617.038-.879.115a3.34 3.34 0 0 0-.853.418l-.376-.533c.601-.433 1.306-.649 2.116-.649.64 0 1.144.14 1.511.418.367.28.55.656.55 1.13Zm1.45-1.46h1.779c.837 0 1.44.126 1.809.376.373.248.559.637.559 1.17 0 .369-.101.675-.303.917-.202.238-.496.393-.883.465v.042c.481.083.834.249 1.058.5.228.25.342.58.342.993 0 .558-.191.993-.572 1.306-.381.313-.913.47-1.596.47h-2.193V7.926Zm.785 2.655h1.152c.49 0 .845-.079 1.067-.235.222-.157.333-.418.333-.785 0-.341-.123-.587-.367-.738-.242-.15-.626-.226-1.152-.226h-1.033v1.984Zm0 .657v2.26h1.259c.501 0 .872-.096 1.113-.29.242-.193.363-.486.363-.878 0-.373-.128-.647-.384-.824-.256-.179-.64-.268-1.152-.268h-1.199Zm10.342-.201c0 .998-.253 1.783-.76 2.355-.503.572-1.208.857-2.116.857-.918 0-1.629-.28-2.133-.84-.5-.563-.751-1.357-.751-2.38 0-1.016.249-1.802.747-2.36.501-.56 1.216-.84 2.146-.84.904 0 1.608.284 2.112.853.503.566.755 1.351.755 2.355Zm-4.932 0c0 .825.175 1.453.525 1.886.35.432.86.648 1.531.648.669 0 1.176-.213 1.523-.64.347-.426.521-1.058.521-1.894 0-.833-.172-1.46-.516-1.881-.345-.424-.851-.636-1.519-.636-.677 0-1.19.215-1.54.644-.35.427-.525 1.051-.525 1.873Zm11.224 4.77h-.75v-1.643h-4.292v1.643h-.751v-2.343h.482c.421-.716.785-1.585 1.092-2.606.307-1.021.488-1.998.542-2.931h2.884v5.537h.793v2.342Zm-1.574-2.343V8.635h-1.412c-.054.708-.228 1.534-.52 2.479-.291.944-.616 1.727-.977 2.35h2.909Zm5.29-4.936c-.671 0-1.199.225-1.583.674-.384.45-.575 1.064-.575 1.844 0 .804.186 1.426.558 1.864.373.435.903.652 1.592.652.443 0 .942-.082 1.497-.247v.683a3.716 3.716 0 0 1-.764.196 5.693 5.693 0 0 1-.844.055c-.919 0-1.627-.278-2.125-.836-.495-.56-.742-1.352-.742-2.376 0-.643.118-1.206.354-1.69a2.575 2.575 0 0 1 1.037-1.117c.455-.262.989-.393 1.604-.393.66 0 1.234.123 1.723.367l-.315.666c-.498-.228-.97-.342-1.417-.342Zm4.825 5.636h-.789V8.618h-1.95v-.691h4.676v.691H162.5v5.546Zm2.888-6.237h1.779c.837 0 1.44.125 1.809.375.373.248.559.637.559 1.17 0 .369-.101.675-.303.917-.202.238-.496.393-.883.465v.042c.481.083.834.249 1.058.5.228.25.342.58.342.993 0 .558-.191.993-.572 1.306-.381.313-.913.47-1.596.47h-2.193V7.926Zm.785 2.654h1.152c.49 0 .845-.079 1.067-.235.222-.157.333-.418.333-.785 0-.341-.123-.587-.367-.738-.242-.15-.626-.226-1.152-.226h-1.033v1.984Zm0 .657v2.26h1.259c.501 0 .872-.096 1.113-.29.242-.193.363-.486.363-.878 0-.373-.128-.647-.384-.824-.256-.179-.64-.268-1.152-.268h-1.199Zm8.384 2.926h-3.486V7.927h3.486v.691h-2.701v1.945h2.543v.683h-2.543v2.227h2.701v.691Zm6.147 0h-.785v-2.91h-3.2v2.91h-.785V7.927h.785v2.636h3.2V7.927h.785v6.237Zm6.476 0h-.785v-2.91h-3.199v2.91h-.785V7.927h.785v2.636h3.199V7.927h.785v6.237Zm7.15-3.127c0 .998-.253 1.783-.759 2.355-.503.572-1.209.857-2.116.857-.919 0-1.63-.28-2.133-.84-.501-.563-.751-1.357-.751-2.38 0-1.016.249-1.802.747-2.36.5-.56 1.215-.84 2.145-.84.905 0 1.609.284 2.112.853.504.566.755 1.351.755 2.355Zm-4.931 0c0 .825.175 1.453.524 1.886.35.432.861.648 1.532.648.668 0 1.176-.213 1.523-.64.347-.426.52-1.058.52-1.894 0-.833-.172-1.46-.516-1.881-.344-.424-.85-.636-1.519-.636-.676 0-1.19.215-1.54.644-.349.427-.524 1.051-.524 1.873Zm9.799 3.127h-3.485V7.927h3.485v.691h-2.7v1.945h2.542v.683h-2.542v2.227h2.7v.691Zm10.849-3.127c0 .998-.253 1.783-.759 2.355-.504.572-1.209.857-2.116.857-.919 0-1.63-.28-2.134-.84-.5-.563-.75-1.357-.75-2.38 0-1.016.248-1.802.746-2.36.501-.56 1.216-.84 2.146-.84.905 0 1.608.284 2.112.853.503.566.755 1.351.755 2.355Zm-4.932 0c0 .825.175 1.453.525 1.886.35.432.86.648 1.532.648.668 0 1.176-.213 1.523-.64.347-.426.52-1.058.52-1.894 0-.833-.172-1.46-.516-1.881-.344-.424-.851-.636-1.519-.636-.677 0-1.19.215-1.54.644-.35.427-.525 1.051-.525 1.873Zm10.393 1.301c0 .615-.185 1.072-.555 1.374-.37.301-.936.452-1.698.452h-1.826V7.927h3.703v.691h-2.918v1.945h.926c.796 0 1.389.141 1.779.423.392.281.589.732.589 1.352Zm-3.294 1.152h.96c.535 0 .922-.09 1.16-.269.242-.182.363-.476.363-.883 0-.398-.125-.68-.375-.845-.251-.165-.676-.247-1.276-.247h-.832v2.244Zm9.343-1.152c0 .592-.189 1.044-.567 1.357-.376.313-.923.47-1.643.47h-1.873V8.617h-1.45v-.691h2.231v2.636h.986c.756 0 1.331.15 1.723.448.395.296.593.738.593 1.327Zm-3.302 1.152h1.011c.506 0 .879-.094 1.118-.282.239-.19.358-.48.358-.87 0-.381-.125-.658-.375-.832-.248-.173-.654-.26-1.22-.26h-.892v2.244Zm8.085.674h-3.486V7.927h3.486v.691h-2.701v1.945h2.543v.683h-2.543v2.227h2.701v.691Zm6.373 1.643h-.751v-1.643h-4.291v1.643h-.751v-2.343h.482c.421-.716.785-1.585 1.092-2.606.307-1.021.488-1.998.542-2.931h2.884v5.537h.793v2.342Zm-1.574-2.343V8.635h-1.412c-.054.708-.228 1.534-.521 2.479-.29.944-.615 1.727-.977 2.35h2.91Zm2.628-5.537h.734v3.426c0 .241-.007.561-.022.96a12.43 12.43 0 0 1-.042.776h.038l3.43-5.162h.875v6.237h-.734v-3.392c0-.295.01-.64.03-1.032.02-.395.034-.651.042-.768h-.038l-3.438 5.192h-.875V7.927Zm11.476 6.237h-.785v-2.91h-3.2v2.91h-.785V7.927h.785v2.636h3.2V7.927h.785v6.237Zm5.192 0h-3.486V7.927h3.486v.691h-2.701v1.945h2.543v.683h-2.543v2.227h2.701v.691Zm6.148 0h-.785v-2.91h-3.2v2.91h-.785V7.927h.785v2.636h3.2V7.927h.785v6.237Zm1.715-6.237h.733v3.426a28.617 28.617 0 0 1-.064 1.736h.039l3.43-5.162h.874v6.237h-.733v-3.392c0-.295.01-.64.029-1.032.02-.395.035-.651.043-.768h-.038l-3.439 5.192h-.874V7.927Zm10.191 6.237h-3.485V7.927h3.485v.691h-2.7v1.945h2.543v.683h-2.543v2.227h2.7v.691Z" fill="#BF0000"/></svg></svg>